<svg width="12" height="12" viewBox="0 0 12 12" fill="none" xmlns="http://www.w3.org/2000/svg">
<path d="M7.875 9.75V10.5H7.125V9.75H7.875ZM7.125 9.75V10.5H6.375V9.75H7.125ZM6.375 9.75V10.5H5.625V9.75H6.375ZM5.625 9.75V10.5H4.875V9.75H5.625ZM4.875 9V9.75H4.125V9H4.875ZM3.375 7.5V8.25H2.625V7.5H3.375ZM10.125 7.5V8.25H9.375V7.5H10.125ZM8.625 9V9.75H7.875V9H8.625ZM7.875 9V9.75H7.125V9H7.875ZM5.625 9V9.75H4.875V9H5.625ZM5.625 8.25V9H4.875V8.25H5.625ZM4.875 8.25V9H4.125V8.25H4.875ZM4.125 8.25V9H3.375V8.25H4.125ZM4.125 7.5V8.25H3.375V7.5H4.125ZM4.125 4.5V5.25H3.375V4.5H4.125ZM3.375 6.75V7.5H2.625V6.75H3.375ZM3.375 6V6.75H2.625V6H3.375ZM3.375 4.5V5.25H2.625V4.5H3.375ZM9.375 4.5V5.25H8.625V4.5H9.375ZM9.375 5.25V6H8.625V5.25H9.375ZM9.375 6V6.75H8.625V6H9.375ZM9.375 6.75V7.5H8.625V6.75H9.375ZM10.125 6.75V7.5H9.375V6.75H10.125ZM10.125 6V6.75H9.375V6H10.125ZM9.375 7.5V8.25H8.625V7.5H9.375ZM9.375 8.25V9H8.625V8.25H9.375ZM8.625 8.25V9H7.875V8.25H8.625ZM8.625 7.5V8.25H7.875V7.5H8.625ZM7.125 4.5V5.25H6.375V4.5H7.125ZM6.375 6V6.75H5.625V6H6.375ZM6.375 5.25V6H5.625V5.25H6.375ZM6.375 4.5V5.25H5.625V4.5H6.375ZM4.875 7.5V8.25H4.125V7.5H4.875ZM7.875 4.5V5.25H7.125V4.5H7.875ZM8.625 4.5V5.25H7.875V4.5H8.625ZM4.875 4.5V5.25H4.125V4.5H4.875ZM5.625 4.5V5.25H4.875V4.5H5.625ZM5.625 7.5V8.25H4.875V7.5H5.625ZM7.125 7.5V8.25H6.375V7.5H7.125ZM9.375 3.75V4.5H8.625V3.75H9.375ZM7.875 3.75V4.5H7.125V3.75H7.875ZM7.125 3.75V4.5H6.375V3.75H7.125ZM6.375 3.75V4.5H5.625V3.75H6.375ZM5.625 3.75V4.5H4.875V3.75H5.625ZM4.125 3V3.75H3.375V3H4.125ZM3.375 2.25V3H2.625V2.25H3.375ZM3.375 3V3.75H2.625V3H3.375ZM3.375 3.75V4.5H2.625V3.75H3.375ZM7.125 3V3.75H6.375V3H7.125ZM6.375 3V3.75H5.625V3H6.375ZM10.125 8.25V9H9.375V8.25H10.125ZM9.375 9V9.75H8.625V9H9.375ZM4.125 9V9.75H3.375V9H4.125ZM3.375 8.25V9H2.625V8.25H3.375ZM2.625 1.5V2.25H1.875V1.5H2.625ZM2.625 2.25V3H1.875V2.25H2.625ZM2.625 3V3.75H1.875V3H2.625ZM2.625 3.75V4.5H1.875V3.75H2.625ZM2.625 6V6.75H1.875V6H2.625ZM2.625 6.75V7.5H1.875V6.75H2.625ZM2.625 7.5V8.25H1.875V7.5H2.625ZM2.625 8.25V9H1.875V8.25H2.625ZM3.375 9V9.75H2.625V9H3.375ZM4.875 9.75V10.5H4.125V9.75H4.875ZM5.625 3V3.75H4.875V3H5.625ZM4.875 3.75V4.5H4.125V3.75H4.875ZM6.375 6.75V7.5H5.625V6.75H6.375ZM7.875 7.5V8.25H7.125V7.5H7.875ZM7.125 8.25V9H6.375V8.25H7.125ZM6.375 8.25V9H5.625V8.25H6.375ZM7.125 6V6.75H6.375V6H7.125ZM7.125 6.75V7.5H6.375V6.75H7.125ZM5.625 5.25V6H4.875V5.25H5.625ZM5.625 6V6.75H4.875V6H5.625ZM5.625 6.75V7.5H4.875V6.75H5.625ZM3.375 5.25V6H2.625V5.25H3.375ZM7.125 5.25V6H6.375V5.25H7.125ZM2.625 1.5H3.375V2.25H2.625V1.5ZM3.375 2.25H4.125V3H3.375V2.25ZM1.125 2.25H1.875V3H1.125V2.25ZM1.125 3.75H1.875V4.5H1.125V3.75ZM1.125 3H1.875V3.75H1.125V3ZM1.875 4.5H2.625V5.25H1.875V4.5ZM7.875 3H8.625V3.75H7.875V3ZM7.875 2.25H8.625V3H7.875V2.25ZM8.625 1.5H9.375V2.25H8.625V1.5ZM9.375 1.5H10.125V2.25H9.375V1.5ZM9.375 4.5H10.125V5.25H9.375V4.5ZM9.375 3.75H10.125V4.5H9.375V3.75ZM9.375 3H10.125V3.75H9.375V3ZM10.125 3H10.875V3.75H10.125V3ZM10.125 2.25H10.875V3H10.125V2.25ZM10.125 3.75H10.875V4.5H10.125V3.75ZM9.375 2.25H10.125V3H9.375V2.25ZM8.625 2.25H9.375V3H8.625V2.25ZM8.625 3H9.375V3.75H8.625V3ZM3.375 1.5H4.125V2.25H3.375V1.5ZM4.125 2.25H4.875V3H4.125V2.25ZM7.875 1.5H8.625V2.25H7.875V1.5ZM7.125 2.25H7.875V3H7.125V2.25ZM7.875 3.75H8.625V4.5H7.875V3.75ZM3.375 3.75H4.125V4.5H3.375V3.75ZM3.375 6.75H4.125V7.5H3.375V6.75ZM3.375 6H4.125V6.75H3.375V6ZM7.125 6.75H7.875V7.5H7.125V6.75ZM7.125 6H7.875V6.75H7.125V6Z" fill="#00FF00"/>
</svg>
