<svg width="12" height="12" viewBox="0 0 12 12" fill="none" xmlns="http://www.w3.org/2000/svg">
<path d="M6 9.75H6.75V10.5H6V9.75ZM5.25 9.75H6V10.5H5.25V9.75ZM4.5 9.75H5.25V10.5H4.5V9.75ZM3.75 9.75H4.5V10.5H3.75V9.75ZM6.75 9.75H7.5V10.5H6.75V9.75ZM7.5 9.75H8.25V10.5H7.5V9.75ZM3 9H3.75V9.75H3V9ZM5.25 3.75H6V4.5H5.25V3.75ZM6 3.75H6.75V4.5H6V3.75ZM4.5 3H5.25V3.75H4.5V3ZM5.25 3H6V3.75H5.25V3ZM6 3H6.75V3.75H6V3ZM6.75 3H7.5V3.75H6.75V3ZM4.5 2.25H5.25V3H4.5V2.25ZM5.25 2.25H6V3H5.25V2.25ZM6 2.25H6.75V3H6V2.25ZM6.75 2.25H7.5V3H6.75V2.25ZM5.25 1.5H6V2.25H5.25V1.5ZM6 1.5H6.75V2.25H6V1.5ZM6.75 5.25H7.5V6H6.75V5.25ZM6.75 4.5H7.5V5.25H6.75V4.5ZM7.5 3.75H8.25V4.5H7.5V3.75ZM7.5 4.5H8.25V5.25H7.5V4.5ZM7.5 5.25H8.25V6H7.5V5.25ZM7.5 6H8.25V6.75H7.5V6ZM8.25 3.75H9V4.5H8.25V3.75ZM8.25 4.5H9V5.25H8.25V4.5ZM8.25 5.25H9V6H8.25V5.25ZM8.25 6H9V6.75H8.25V6ZM9 4.5H9.75V5.25H9V4.5ZM9 5.25H9.75V6H9V5.25ZM5.25 6H6V6.75H5.25V6ZM6 6H6.75V6.75H6V6ZM4.5 6.75H5.25V7.5H4.5V6.75ZM5.25 6.75H6V7.5H5.25V6.75ZM6 6.75H6.75V7.5H6V6.75ZM6.75 6.75H7.5V7.5H6.75V6.75ZM4.5 7.5H5.25V8.25H4.5V7.5ZM5.25 7.5H6V8.25H5.25V7.5ZM6 7.5H6.75V8.25H6V7.5ZM6.75 7.5H7.5V8.25H6.75V7.5ZM5.25 8.25H6V9H5.25V8.25ZM6 8.25H6.75V9H6V8.25ZM4.5 4.5H5.25V5.25H4.5V4.5ZM4.5 5.25H5.25V6H4.5V5.25ZM3.75 3.75H4.5V4.5H3.75V3.75ZM3.75 4.5H4.5V5.25H3.75V4.5ZM3.75 5.25H4.5V6H3.75V5.25ZM3.75 6H4.5V6.75H3.75V6ZM3 3.75H3.75V4.5H3V3.75ZM3 4.5H3.75V5.25H3V4.5ZM3 5.25H3.75V6H3V5.25ZM3 6H3.75V6.75H3V6ZM2.25 4.5H3V5.25H2.25V4.5ZM2.25 5.25H3V6H2.25V5.25ZM8.25 9H9V9.75H8.25V9ZM3 8.25H3.75V9H3V8.25ZM2.25 9H3V9.75H2.25V9ZM2.25 8.25H3V9H2.25V8.25ZM3 9.75H3.75V10.5H3V9.75ZM3.75 9H4.5V9.75H3.75V9ZM8.25 8.25H9V9H8.25V8.25ZM9 9H9.75V9.75H9V9ZM9 8.25H9.75V9H9V8.25ZM7.5 9H8.25V9.75H7.5V9ZM8.25 9.75H9V10.5H8.25V9.75ZM5.25 9H6V9.75H5.25V9ZM6 9H6.75V9.75H6V9Z" fill="#FFFF00"/>
</svg>
