<svg width="12" height="12" viewBox="0 0 12 12" fill="none" xmlns="http://www.w3.org/2000/svg">
<path d="M1.125 4.875H1.875V5.625H1.125V4.875ZM1.125 4.125H1.875V4.875H1.125V4.125ZM1.125 3.375H1.875V4.125H1.125V3.375ZM1.875 2.625H2.625V3.375H1.875V2.625ZM2.625 1.875H3.375V2.625H2.625V1.875ZM5.625 3.375H6.375V4.125H5.625V3.375ZM4.875 2.625H5.625V3.375H4.875V2.625ZM4.125 1.875H4.875V2.625H4.125V1.875ZM3.375 1.875H4.125V2.625H3.375V1.875ZM6.375 2.625H7.125V3.375H6.375V2.625ZM7.125 1.875H7.875V2.625H7.125V1.875ZM7.875 1.875H8.625V2.625H7.875V1.875ZM8.625 1.875H9.375V2.625H8.625V1.875ZM9.375 2.625H10.125V3.375H9.375V2.625ZM10.125 3.375H10.875V4.125H10.125V3.375ZM10.125 4.125H10.875V4.875H10.125V4.125ZM10.125 4.875H10.875V5.625H10.125V4.875ZM1.875 5.625H2.625V6.375H1.875V5.625ZM2.625 6.375H3.375V7.125H2.625V6.375ZM3.375 7.125H4.125V7.875H3.375V7.125ZM4.125 7.875H4.875V8.625H4.125V7.875ZM4.875 8.625H5.625V9.375H4.875V8.625ZM5.625 9.375H6.375V10.125H5.625V9.375ZM6.375 8.625H7.125V9.375H6.375V8.625ZM7.125 7.875H7.875V8.625H7.125V7.875ZM7.875 7.125H8.625V7.875H7.875V7.125ZM8.625 6.375H9.375V7.125H8.625V6.375ZM9.375 5.625H10.125V6.375H9.375V5.625ZM9.375 4.875H10.125V5.625H9.375V4.875ZM9.375 4.125H10.125V4.875H9.375V4.125ZM9.375 3.375H10.125V4.125H9.375V3.375ZM8.625 3.375H9.375V4.125H8.625V3.375ZM7.875 3.375H8.625V4.125H7.875V3.375ZM7.875 2.625H8.625V3.375H7.875V2.625ZM7.125 2.625H7.875V3.375H7.125V2.625ZM8.625 2.625H9.375V3.375H8.625V2.625ZM7.125 3.375H7.875V4.125H7.125V3.375ZM6.375 3.375H7.125V4.125H6.375V3.375ZM6.375 4.125H7.125V4.875H6.375V4.125ZM6.375 4.875H7.125V5.625H6.375V4.875ZM7.125 4.875H7.875V5.625H7.125V4.875ZM7.875 4.125H8.625V4.875H7.875V4.125ZM8.625 4.125H9.375V4.875H8.625V4.125ZM8.625 4.875H9.375V5.625H8.625V4.875ZM8.625 5.625H9.375V6.375H8.625V5.625ZM7.875 5.625H8.625V6.375H7.875V5.625ZM7.875 4.875H8.625V5.625H7.875V4.875ZM7.125 4.125H7.875V4.875H7.125V4.125ZM7.125 5.625H7.875V6.375H7.125V5.625ZM7.125 6.375H7.875V7.125H7.125V6.375ZM7.875 6.375H8.625V7.125H7.875V6.375ZM7.125 7.125H7.875V7.875H7.125V7.125ZM6.375 7.125H7.125V7.875H6.375V7.125ZM6.375 7.875H7.125V8.625H6.375V7.875ZM5.625 8.625H6.375V9.375H5.625V8.625ZM5.625 7.875H6.375V8.625H5.625V7.875ZM4.875 7.875H5.625V8.625H4.875V7.875ZM4.875 7.125H5.625V7.875H4.875V7.125ZM4.125 7.125H4.875V7.875H4.125V7.125ZM4.125 6.375H4.875V7.125H4.125V6.375ZM3.375 6.375H4.125V7.125H3.375V6.375ZM3.375 5.625H4.125V6.375H3.375V5.625ZM2.625 5.625H3.375V6.375H2.625V5.625ZM2.625 4.875H3.375V5.625H2.625V4.875ZM1.875 4.875H2.625V5.625H1.875V4.875ZM1.875 4.125H2.625V4.875H1.875V4.125ZM1.875 3.375H2.625V4.125H1.875V3.375ZM2.625 3.375H3.375V4.125H2.625V3.375ZM2.625 2.625H3.375V3.375H2.625V2.625ZM3.375 2.625H4.125V3.375H3.375V2.625ZM4.125 2.625H4.875V3.375H4.125V2.625ZM4.125 3.375H4.875V4.125H4.125V3.375ZM4.875 3.375H5.625V4.125H4.875V3.375ZM4.875 4.125H5.625V4.875H4.875V4.125ZM4.875 4.875H5.625V5.625H4.875V4.875ZM5.625 4.875H6.375V5.625H5.625V4.875ZM5.625 5.625H6.375V6.375H5.625V5.625ZM6.375 5.625H7.125V6.375H6.375V5.625ZM5.625 4.125H6.375V4.875H5.625V4.125ZM5.625 6.375H6.375V7.125H5.625V6.375ZM6.375 6.375H7.125V7.125H6.375V6.375ZM5.625 7.125H6.375V7.875H5.625V7.125ZM4.875 6.375H5.625V7.125H4.875V6.375ZM4.875 5.625H5.625V6.375H4.875V5.625ZM4.125 5.625H4.875V6.375H4.125V5.625ZM4.125 4.875H4.875V5.625H4.125V4.875ZM4.125 4.125H4.875V4.875H4.125V4.125ZM3.375 4.125H4.125V4.875H3.375V4.125ZM2.625 4.125H3.375V4.875H2.625V4.125ZM3.375 3.375H4.125V4.125H3.375V3.375ZM3.375 4.875H4.125V5.625H3.375V4.875Z" fill="#FF0000"/>
</svg>
