<svg width="51" height="51" viewBox="0 0 51 51" fill="none" xmlns="http://www.w3.org/2000/svg">
<g clip-path="url(#clip0_21_2)" fill="rgba(255, 255, 255, .5)">
<path d="M5.5 4.03788C5.0625 4.03788 4.67969 3.85985 4.35938 3.50379C4.01953 3.12879 3.84766 2.67045 3.84766 2.12879C3.84766 1.52273 4.08594 1.01515 4.55859 0.609849C5.03516 0.200759 5.63281 0 6.35156 0C6.92969 0 7.57031 0.170455 8.27344 0.511364C8.52344 0.636363 9.23047 1.03788 10.3984 1.72348C11.0859 2.125 11.5977 2.4053 11.9336 2.56061C13.0469 3.07197 13.8438 3.34848 14.3203 3.38636C14.5938 3.40909 14.7461 3.42424 14.7773 3.43182C14.8828 3.45455 14.9336 3.51515 14.9336 3.61742C14.9336 3.75758 14.8477 3.82955 14.668 3.82955C14.5898 3.82955 13.957 3.66667 12.7734 3.34091C12.7188 3.32197 12.668 3.31439 12.6289 3.31439C12.543 3.31439 12.4961 3.34848 12.4961 3.40909C12.4961 3.45455 12.5156 3.52273 12.5469 3.61364C12.5781 3.70076 12.5938 3.76515 12.5938 3.80303C12.5938 3.9053 12.5312 3.95455 12.4023 3.95455C12.082 3.95455 11.7812 3.76136 11.5 3.375C11.0781 2.79167 10.8125 2.5 10.7109 2.5C10.6055 2.5 10.5547 2.56818 10.5547 2.70076C10.5547 2.75379 10.5703 2.82955 10.6055 2.93182C10.6445 3.0303 10.6602 3.10606 10.6602 3.15152C10.6602 3.32197 10.5625 3.40909 10.3594 3.40909C10.1523 3.40909 9.94922 3.25379 9.75 2.94318C9.34766 2.3447 9.125 2.01894 9.07812 1.96591C8.85156 1.70076 8.50781 1.43182 8.03516 1.15152C7.28906 0.708334 6.71094 0.488636 6.29297 0.488636C5.60547 0.488636 5.07813 0.632576 4.71094 0.924242C4.34375 1.21591 4.16016 1.61742 4.16016 2.12879C4.16016 2.5947 4.28516 2.9697 4.53516 3.25758C4.78906 3.54545 5.11328 3.68939 5.51562 3.68939C6.37109 3.68939 6.79688 3.36364 6.79688 2.70833V2.64015C6.78906 2.60227 6.76563 2.58333 6.72656 2.58333C6.69531 2.58333 6.58984 2.66667 6.41406 2.83712C6.23828 3.01136 6.03516 3.0947 5.80078 3.0947C5.57031 3.0947 5.37891 3.00379 5.22656 2.82576C5.07422 2.64773 4.99609 2.42424 4.99609 2.15152C4.99609 1.94318 5.10547 1.76136 5.32031 1.60606C5.53906 1.45076 5.79688 1.37121 6.10156 1.37121C6.40625 1.37121 6.67578 1.49621 6.91797 1.75C7.16016 2.00379 7.27734 2.28409 7.27734 2.5947C7.27734 3.01515 7.10547 3.35606 6.76953 3.62879C6.42578 3.90152 6.00781 4.03788 5.5 4.03788Z"/>
<path d="M3.74219 7.08333C3.46484 7.41288 3.10938 7.57576 2.67578 7.57576C2.35547 7.57576 2.06641 7.46212 1.80469 7.22727C1.54688 6.99621 1.41406 6.73106 1.41406 6.43561C1.41406 6.14015 1.49609 5.89015 1.65625 5.67803C1.81641 5.4697 2.00391 5.36742 2.22266 5.36742C2.5 5.36742 2.73047 5.43939 2.91406 5.58712C3.10156 5.73485 3.19141 5.92045 3.19141 6.14394C3.19141 6.37121 3.10547 6.56818 2.92969 6.73864C2.75 6.90909 2.66406 7.01136 2.66406 7.04167C2.66406 7.07955 2.68359 7.10227 2.72266 7.10985H2.79688C3.46875 7.10985 3.80469 6.69697 3.80469 5.86742C3.80469 5.47727 3.65625 5.16288 3.35938 4.91667C3.0625 4.67424 2.67578 4.55303 2.19531 4.55303C1.66797 4.55303 1.25391 4.73106 0.953125 5.08712C0.65625 5.44318 0.503906 5.95455 0.503906 6.62121C0.503906 7.02652 0.730468 7.58712 1.1875 8.31061C1.47656 8.76894 1.75781 9.10606 2.02734 9.32197C2.08594 9.36742 2.41797 9.58712 3.03516 9.97349C3.35547 10.1667 3.51562 10.3636 3.51562 10.5682C3.51562 10.7614 3.42578 10.8598 3.25 10.8598C3.20312 10.8598 3.12891 10.8409 3.02344 10.8068C2.91797 10.7689 2.83984 10.7538 2.78516 10.7538C2.64844 10.7538 2.58203 10.803 2.58203 10.9053C2.58203 11.0038 2.87891 11.2614 3.48047 11.6742C3.87891 11.9432 4.08203 12.2348 4.08203 12.5455C4.08203 12.6705 4.02734 12.7311 3.92188 12.7311C3.88281 12.7311 3.82031 12.7159 3.72656 12.6856C3.63281 12.6553 3.5625 12.6402 3.51562 12.6402C3.45312 12.6402 3.41797 12.6818 3.41797 12.7652C3.41797 12.8068 3.42578 12.8523 3.44531 12.9053C3.78125 14.053 3.94922 14.6667 3.94922 14.7462C3.94922 14.9167 3.875 15 3.73047 15C3.62891 15 3.5625 14.9508 3.53906 14.8485C3.53125 14.8182 3.51563 14.6705 3.49219 14.4053C3.45313 13.9432 3.16797 13.1705 2.64062 12.0909C2.48047 11.7652 2.19141 11.2689 1.77734 10.6023C1.07422 9.4697 0.65625 8.78409 0.527344 8.54167C0.175781 7.85985 0 7.23864 0 6.68182C0 5.98106 0.210937 5.40152 0.628906 4.93939C1.05078 4.48106 1.57422 4.25 2.19531 4.25C2.75781 4.25 3.22656 4.41667 3.61328 4.75C3.98047 5.06061 4.16406 5.42803 4.16406 5.85606C4.16406 6.3447 4.02344 6.75379 3.74219 7.08333Z"/>
<path d="M43.2461 2.5947C43.2461 3.01515 43.418 3.35606 43.7539 3.62879C44.0938 3.90152 44.5156 4.03788 45.0195 4.03788C45.4609 4.03788 45.8398 3.85985 46.1641 3.50379C46.5039 3.12879 46.6758 2.67045 46.6758 2.12879C46.6758 1.52273 46.4375 1.01515 45.9648 0.609849C45.4883 0.200759 44.8906 0 44.1719 0C43.5938 0 42.9531 0.170455 42.25 0.511364C42.0039 0.636363 41.293 1.03788 40.125 1.72348C39.4375 2.125 38.9258 2.4053 38.5898 2.56061C37.4766 3.07197 36.6797 3.34848 36.2031 3.38636C35.9297 3.40909 35.7773 3.42424 35.7461 3.43182C35.6406 3.45455 35.5898 3.51515 35.5898 3.61742C35.5898 3.75758 35.6758 3.82955 35.8516 3.82955C35.9336 3.82955 36.5664 3.66667 37.75 3.34091C37.8047 3.32197 37.8516 3.31439 37.8945 3.31439C37.9805 3.31439 38.0273 3.34848 38.0273 3.40909C38.0273 3.45455 38.0078 3.52273 37.9766 3.61364C37.9453 3.70076 37.9297 3.76515 37.9297 3.80303C37.9297 3.9053 37.9961 3.95455 38.1211 3.95455C38.4414 3.95455 38.7422 3.76136 39.0195 3.375C39.4453 2.79167 39.7109 2.5 39.8125 2.5C39.918 2.5 39.9688 2.56818 39.9688 2.70076C39.9688 2.75379 39.9531 2.82955 39.918 2.93182C39.8789 3.0303 39.8633 3.10606 39.8633 3.15152C39.8633 3.32197 39.9609 3.40909 40.1641 3.40909C40.3711 3.40909 40.5742 3.25379 40.7734 2.94318C41.1719 2.3447 41.3984 2.01894 41.4453 1.96591C41.6719 1.70076 42.0156 1.43182 42.4883 1.15152C43.2344 0.708334 43.8125 0.488636 44.2305 0.488636C44.918 0.488636 45.4453 0.632576 45.8125 0.924242C46.1797 1.21591 46.3672 1.61742 46.3672 2.12879C46.3672 2.5947 46.2383 2.9697 45.9883 3.25758C45.7344 3.54545 45.4102 3.68939 45.0078 3.68939C44.1523 3.68939 43.7266 3.36364 43.7266 2.70833V2.64015C43.7344 2.60227 43.7578 2.58333 43.7969 2.58333C43.832 2.58333 43.9336 2.66667 44.1094 2.83712C44.2852 3.01136 44.4922 3.0947 44.7227 3.0947C44.9531 3.0947 45.1445 3.00379 45.2969 2.82576C45.4492 2.64773 45.5273 2.42424 45.5273 2.15152C45.5273 1.94318 45.418 1.76136 45.2031 1.60606C44.9844 1.45076 44.7266 1.37121 44.4219 1.37121C44.1172 1.37121 43.8438 1.49621 43.6055 1.75C43.3672 2.00379 43.2461 2.28409 43.2461 2.5947Z"/>
<path d="M47.3867 4.75C47.0195 5.06061 46.8359 5.42803 46.8359 5.85606C46.8359 6.3447 46.9766 6.75379 47.2578 7.08333C47.5391 7.41288 47.8906 7.57576 48.3242 7.57576C48.6445 7.57576 48.9336 7.46212 49.1953 7.22727C49.457 6.99621 49.5859 6.73106 49.5859 6.43561C49.5859 6.14015 49.5039 5.89015 49.3438 5.67803C49.1836 5.4697 48.9961 5.36742 48.7812 5.36742C48.5 5.36742 48.2695 5.43939 48.0859 5.58712C47.9023 5.73485 47.8086 5.92045 47.8086 6.14394C47.8086 6.37121 47.8945 6.56818 48.0742 6.73864C48.25 6.90909 48.3359 7.01136 48.3359 7.04167C48.3359 7.07955 48.3164 7.10227 48.2773 7.10985H48.207C47.5312 7.10985 47.1953 6.69697 47.1953 5.86742C47.1953 5.47727 47.3438 5.16288 47.6406 4.91667C47.9375 4.67424 48.3242 4.55303 48.8047 4.55303C49.332 4.55303 49.7461 4.73106 50.0469 5.08712C50.3477 5.44318 50.4961 5.95455 50.4961 6.62121C50.4961 7.02652 50.2695 7.58712 49.8125 8.31061C49.5234 8.76894 49.2461 9.10606 48.9727 9.32197C48.918 9.36742 48.582 9.58712 47.9648 9.97349C47.6445 10.1667 47.4844 10.3636 47.4844 10.5682C47.4844 10.7614 47.5742 10.8598 47.75 10.8598C47.7969 10.8598 47.875 10.8409 47.9766 10.8068C48.082 10.7689 48.1602 10.7538 48.2148 10.7538C48.3516 10.7538 48.4219 10.803 48.4219 10.9053C48.4219 11.0038 48.1211 11.2614 47.5195 11.6742C47.1211 11.9432 46.9219 12.2348 46.9219 12.5455C46.9219 12.6705 46.9727 12.7311 47.0781 12.7311C47.1172 12.7311 47.1836 12.7159 47.2734 12.6856C47.3672 12.6553 47.4375 12.6402 47.4844 12.6402C47.5469 12.6402 47.582 12.6818 47.582 12.7652C47.582 12.8068 47.5742 12.8523 47.5547 12.9053C47.2188 14.053 47.0508 14.6667 47.0508 14.7462C47.0508 14.9167 47.125 15 47.2695 15C47.375 15 47.4375 14.9508 47.4609 14.8485C47.4688 14.8182 47.4844 14.6705 47.5078 14.4053C47.5469 13.9432 47.832 13.1705 48.3594 12.0909C48.5195 11.7652 48.8086 11.2689 49.2227 10.6023C49.9297 9.4697 50.3438 8.78409 50.4727 8.54167C50.8242 7.85985 51 7.23864 51 6.68182C51 5.98106 50.793 5.40152 50.3711 4.93939C49.9531 4.48106 49.4297 4.25 48.8047 4.25C48.2461 4.25 47.7734 4.41667 47.3867 4.75Z"/>
<path d="M6.608 47.3433C6.93592 47.6178 7.10369 47.9648 7.10369 48.3843C7.10369 48.6969 6.9893 48.9829 6.75289 49.2346C6.51648 49.49 6.25338 49.6159 5.95597 49.6159C5.65855 49.6159 5.40689 49.5396 5.19336 49.3833C4.98364 49.2269 4.87688 49.0439 4.87688 48.8304C4.87688 48.5597 4.95314 48.3309 5.10184 48.1517C5.25055 47.9724 5.43739 47.8809 5.66236 47.8809C5.89114 47.8809 6.08942 47.9686 6.26101 48.1402C6.4326 48.3156 6.53555 48.3995 6.56605 48.3995C6.60418 48.3995 6.62706 48.3766 6.63469 48.3385V48.2699C6.63469 47.614 6.21907 47.2861 5.38401 47.2861C4.99127 47.2861 4.67478 47.431 4.42694 47.717C4.1829 48.0068 4.06089 48.3843 4.06089 48.8533C4.06089 49.3718 4.2401 49.776 4.59852 50.0658C4.95695 50.3594 5.47171 50.5081 6.1428 50.5081C6.5508 50.5081 7.11513 50.2831 7.84342 49.837C8.3048 49.5587 8.64034 49.2841 8.8615 49.0172C8.90726 48.9638 9.1246 48.6397 9.51734 48.0335C9.71181 47.7208 9.91009 47.5645 10.1122 47.5645C10.3105 47.5645 10.4058 47.6522 10.4058 47.8276C10.4058 47.8695 10.3905 47.9458 10.3524 48.0449C10.3181 48.1517 10.3028 48.2279 10.3028 48.2813C10.3028 48.4148 10.3524 48.4796 10.4554 48.4796C10.5545 48.4796 10.8138 48.186 11.2256 47.6026C11.5001 47.2098 11.7937 47.0154 12.1064 47.0154C12.2322 47.0154 12.2932 47.0649 12.2932 47.1679C12.2932 47.206 12.278 47.2708 12.2475 47.3624C12.217 47.4501 12.1979 47.5187 12.1979 47.5645C12.1979 47.6293 12.2437 47.6636 12.3276 47.6636C12.3657 47.6636 12.4153 47.6522 12.4686 47.6369C13.624 47.309 14.2417 47.145 14.318 47.145C14.4934 47.145 14.5772 47.2175 14.5772 47.3547C14.5772 47.4577 14.5277 47.5187 14.4247 47.5416C14.3942 47.5492 14.2455 47.5645 13.9786 47.5911C13.5134 47.6293 12.7355 47.9076 11.6488 48.4224C11.3209 48.5787 10.8214 48.8571 10.1503 49.2651C9.01021 49.9514 8.32005 50.3594 8.07601 50.4814C7.38967 50.8284 6.76433 51 6.2 51C5.4984 51 4.91501 50.7941 4.44982 50.3823C3.98844 49.9743 3.75584 49.4633 3.75584 48.8533C3.75584 48.308 3.92362 47.8466 4.25535 47.4729C4.56802 47.1145 4.9417 46.9353 5.36876 46.9353C5.86445 46.9353 6.27245 47.0688 6.608 47.3433Z"/>
<path d="M4.0647 44.7047C4.0647 45.1355 3.88549 45.5054 3.52706 45.8181C3.14957 46.1536 2.692 46.3214 2.14293 46.3214C1.53665 46.3214 1.02571 46.0888 0.613899 45.6236C0.205904 45.1584 0 44.575 0 43.8734C0 43.3129 0.171586 42.6876 0.51476 42.0012C0.64059 41.7572 1.04858 41.067 1.73493 39.9269C2.13911 39.2558 2.42128 38.7563 2.57761 38.4284C3.09237 37.3417 3.37073 36.5638 3.40886 36.0948C3.43173 35.8317 3.44699 35.683 3.45461 35.6525C3.47749 35.5496 3.54231 35.5 3.64145 35.5C3.78253 35.5 3.85498 35.5839 3.85498 35.7555C3.85498 35.8355 3.69102 36.4494 3.3631 37.6086C3.34403 37.662 3.33641 37.7077 3.33641 37.7459C3.33641 37.8336 3.37073 37.8755 3.43173 37.8755C3.47749 37.8755 3.54613 37.8603 3.63764 37.8298C3.72915 37.7993 3.79016 37.784 3.82829 37.784C3.93124 37.784 3.98462 37.845 3.98462 37.9708C3.98462 38.2835 3.78635 38.5771 3.39742 38.8478C2.81021 39.2635 2.52042 39.5189 2.52042 39.6219C2.52042 39.7248 2.58524 39.7744 2.7187 39.7744C2.77208 39.7744 2.84834 39.7554 2.95129 39.721C3.05424 39.6867 3.12669 39.6677 3.17245 39.6677C3.34403 39.6677 3.43173 39.7668 3.43173 39.9613C3.43173 40.1633 3.2754 40.3654 2.96273 40.5599C2.36027 40.9488 2.03616 41.1662 1.97897 41.2157C1.71587 41.4331 1.44133 41.7724 1.15916 42.2338C0.713037 42.9583 0.491882 43.5264 0.491882 43.9306C0.491882 44.6055 0.64059 45.1203 0.930381 45.4787C1.22399 45.8371 1.62817 46.0164 2.14293 46.0164C2.61193 46.0164 2.98942 45.8943 3.27921 45.6465C3.569 45.4025 3.7139 45.0822 3.7139 44.6932C3.7139 43.8582 3.38598 43.4387 2.73014 43.4387H2.65769C2.61956 43.4464 2.60049 43.4731 2.60049 43.5112C2.60049 43.5417 2.68438 43.6446 2.85978 43.8162C3.03137 43.9878 3.11525 44.1861 3.11525 44.4111C3.11525 44.6399 3.02755 44.8267 2.84453 44.9754C2.66531 45.1241 2.44034 45.1966 2.16962 45.1966C1.95609 45.1966 1.77306 45.0936 1.61673 44.8801C1.46039 44.6704 1.38032 44.4149 1.38032 44.1213C1.38032 43.8239 1.50996 43.5569 1.76162 43.3244C2.0171 43.0879 2.29926 42.9736 2.61193 42.9736C3.03518 42.9736 3.38217 43.1375 3.65289 43.4692C3.92743 43.801 4.0647 44.2128 4.0647 44.7047Z"/>
<path d="M45.0195 46.9353C45.4609 46.9353 45.8398 47.1145 46.1641 47.4729C46.5039 47.8466 46.6758 48.308 46.6758 48.8533C46.6758 49.4633 46.4375 49.9743 45.9648 50.3823C45.4883 50.7941 44.8906 51 44.1719 51C43.5938 51 42.9531 50.8284 42.25 50.4814C42.0039 50.3594 41.293 49.9514 40.125 49.2651C39.4375 48.8571 38.9258 48.5787 38.5898 48.4224C37.4766 47.9076 36.6797 47.6293 36.2031 47.5911C35.9297 47.5645 35.7773 47.5492 35.7461 47.5416C35.6406 47.5187 35.5898 47.4577 35.5898 47.3547C35.5898 47.2175 35.6758 47.145 35.8516 47.145C35.9336 47.145 36.5664 47.309 37.75 47.6369C37.8047 47.6522 37.8516 47.6636 37.8945 47.6636C37.9805 47.6636 38.0273 47.6293 38.0273 47.5645C38.0273 47.5187 38.0078 47.4501 37.9766 47.3624C37.9453 47.2708 37.9297 47.206 37.9297 47.1679C37.9297 47.0649 37.9961 47.0154 38.1211 47.0154C38.4414 47.0154 38.7422 47.2098 39.0195 47.6026C39.4453 48.186 39.7109 48.4796 39.8125 48.4796C39.918 48.4796 39.9688 48.4148 39.9688 48.2813C39.9688 48.2279 39.9531 48.1517 39.918 48.0449C39.8789 47.9458 39.8633 47.8695 39.8633 47.8276C39.8633 47.6522 39.9609 47.5645 40.1641 47.5645C40.3711 47.5645 40.5742 47.7208 40.7734 48.0335C41.1719 48.6397 41.3984 48.9638 41.4453 49.0172C41.6719 49.2841 42.0156 49.5587 42.4883 49.837C43.2344 50.2831 43.8125 50.5081 44.2305 50.5081C44.918 50.5081 45.4453 50.3594 45.8125 50.0658C46.1797 49.776 46.3672 49.3718 46.3672 48.8533C46.3672 48.3843 46.2383 48.0068 45.9883 47.717C45.7344 47.431 45.4102 47.2861 45.0078 47.2861C44.1523 47.2861 43.7266 47.614 43.7266 48.2699V48.3385C43.7344 48.3766 43.7578 48.3995 43.7969 48.3995C43.832 48.3995 43.9336 48.3156 44.1094 48.1402C44.2852 47.9686 44.4922 47.8809 44.7227 47.8809C44.9531 47.8809 45.1445 47.9724 45.2969 48.1517C45.4492 48.3309 45.5273 48.5597 45.5273 48.8304C45.5273 49.0439 45.418 49.2269 45.2031 49.3833C44.9844 49.5396 44.7266 49.6159 44.4219 49.6159C44.1172 49.6159 43.8438 49.49 43.6055 49.2346C43.3672 48.9829 43.2461 48.6969 43.2461 48.3843C43.2461 47.9648 43.418 47.6178 43.7539 47.3433C44.0938 47.0688 44.5156 46.9353 45.0195 46.9353Z"/>
<path d="M47.2578 43.4692C47.5391 43.1375 47.8906 42.9736 48.3242 42.9736C48.6445 42.9736 48.9336 43.0879 49.1953 43.3244C49.457 43.5569 49.5859 43.8239 49.5859 44.1213C49.5859 44.4149 49.5039 44.6704 49.3438 44.8801C49.1836 45.0936 48.9961 45.1966 48.7812 45.1966C48.5 45.1966 48.2695 45.1241 48.0859 44.9754C47.9023 44.8267 47.8086 44.6399 47.8086 44.4111C47.8086 44.1861 47.8945 43.9878 48.0742 43.8162C48.25 43.6446 48.3359 43.5417 48.3359 43.5112C48.3359 43.4731 48.3164 43.4464 48.2773 43.4387H48.207C47.5313 43.4387 47.1953 43.8582 47.1953 44.6932C47.1953 45.0822 47.3438 45.4025 47.6406 45.6465C47.9375 45.8943 48.3242 46.0164 48.8047 46.0164C49.332 46.0164 49.7461 45.8371 50.0469 45.4787C50.3477 45.1203 50.4961 44.6055 50.4961 43.9306C50.4961 43.5264 50.2695 42.9583 49.8125 42.2338C49.5234 41.7724 49.2461 41.4331 48.9727 41.2157C48.918 41.1662 48.582 40.9488 47.9648 40.5599C47.6445 40.3654 47.4844 40.1633 47.4844 39.9613C47.4844 39.7668 47.5742 39.6677 47.75 39.6677C47.7969 39.6677 47.875 39.6867 47.9766 39.721C48.082 39.7554 48.1602 39.7744 48.2148 39.7744C48.3516 39.7744 48.4219 39.7248 48.4219 39.6219C48.4219 39.5189 48.1211 39.2635 47.5195 38.8478C47.1211 38.5771 46.9219 38.2835 46.9219 37.9708C46.9219 37.845 46.9727 37.784 47.0781 37.784C47.1172 37.784 47.1836 37.7993 47.2734 37.8298C47.3672 37.8603 47.4375 37.8755 47.4844 37.8755C47.5469 37.8755 47.582 37.8336 47.582 37.7459C47.582 37.7077 47.5742 37.662 47.5547 37.6086C47.2188 36.4494 47.0508 35.8355 47.0508 35.7555C47.0508 35.5839 47.125 35.5 47.2695 35.5C47.375 35.5 47.4375 35.5496 47.4609 35.6525C47.4688 35.683 47.4844 35.8317 47.5078 36.0948C47.5469 36.5638 47.832 37.3417 48.3594 38.4284C48.5195 38.7563 48.8086 39.2558 49.2227 39.9269C49.9297 41.067 50.3438 41.7572 50.4727 42.0012C50.8242 42.6876 51 43.3129 51 43.8734C51 44.575 50.793 45.1584 50.3711 45.6236C49.9531 46.0888 49.4297 46.3214 48.8047 46.3214C48.2461 46.3214 47.7734 46.1536 47.3867 45.8181C47.0195 45.5054 46.8359 45.1355 46.8359 44.7047C46.8359 44.2128 46.9766 43.801 47.2578 43.4692Z"/>
<path d="M3.59998 34.15V16.45C3.59998 16.3672 3.67029 16.3 3.75232 16.3C3.83435 16.3 3.90466 16.3633 3.90466 16.45V34.15C3.90466 34.2422 3.83435 34.3 3.75232 34.3C3.67029 34.3 3.59998 34.2344 3.59998 34.15Z"/>
<path d="M34.1117 3.79535L16.4117 3.79535C16.3289 3.79535 16.2617 3.72504 16.2617 3.64301C16.2617 3.56097 16.325 3.49066 16.4117 3.49066L34.1117 3.49066C34.2039 3.49066 34.2617 3.56097 34.2617 3.64301C34.2617 3.72504 34.1961 3.79535 34.1117 3.79535Z"/>
<path d="M34.1117 47.4964H16.4117C16.3289 47.4964 16.2617 47.4261 16.2617 47.3441C16.2617 47.262 16.325 47.1917 16.4117 47.1917H34.1117C34.2039 47.1917 34.2617 47.262 34.2617 47.3441C34.2617 47.4261 34.1961 47.4964 34.1117 47.4964Z"/>
<path d="M47.1 34.15V16.45C47.1 16.3672 47.1703 16.3 47.2523 16.3C47.3344 16.3 47.4047 16.3633 47.4047 16.45V34.15C47.4047 34.2422 47.3344 34.3 47.2523 34.3C47.1703 34.3 47.1 34.2344 47.1 34.15Z"/>
</g>
<defs>
<clipPath id="clip0_21_2">
<rect width="51" height="51"/>
</clipPath>
</defs>
</svg>
