<svg width="500" height="115" viewBox="0 0 500 115" fill="none" xmlns="http://www.w3.org/2000/svg">
<g clip-path="url(#clip0_1_607)" fill="rgba(255, 255, 255, .3)">
<path d="M491.462 8.01925C492.118 7.52606 492.665 7.01684 493.109 6.49158C493.469 6.05854 493.648 5.75782 493.648 5.59342C493.648 5.30072 493.429 4.94788 492.985 4.54691C492.681 4.25822 492.082 3.7931 491.182 3.14354C490.503 2.65036 489.795 2.27346 489.068 2.00882C488.428 1.78027 487.861 1.66399 487.361 1.66399C486.689 1.66399 485.934 1.7482 485.094 1.9166C484.255 2.085 483.747 2.16921 483.568 2.16921C482.912 2.16921 482.172 2.00882 481.345 1.68805C480.853 1.4996 480.61 1.21893 480.61 0.838011C480.61 0.797916 480.61 0.737772 480.618 0.653569V0.469126C480.618 0.156376 480.49 0 480.226 0C480.098 0 479.986 0.0521251 479.894 0.148356C479.806 0.248596 479.758 0.368885 479.758 0.509222C479.758 1.88051 482.013 2.78669 486.513 3.22775C486.989 3.27987 487.889 3.35205 489.216 3.45229C490.027 3.50842 490.567 3.56857 490.838 3.63673C491.538 3.80914 492.09 4.07378 492.481 4.43464C492.877 4.79551 493.069 5.19647 493.069 5.62951C493.069 6.10666 492.749 6.57177 492.102 7.02085C491.118 7.71051 489.991 8.05934 488.712 8.05934C488.597 8.05934 488.433 8.05541 488.22 8.05029C488.129 8.0481 488.029 8.0457 487.92 8.0433C487.753 8.04146 487.602 8.03876 487.47 8.03639C487.315 8.03361 487.184 8.03128 487.081 8.03128C484.991 8.03128 483.244 8.31596 481.837 8.88132C480.582 9.38252 479.958 9.92382 479.958 10.5092C479.958 10.6897 480.014 10.842 480.13 10.9663C480.242 11.0866 480.382 11.1508 480.546 11.1508C480.741 11.1508 480.841 11.0465 480.841 10.842C480.841 10.7739 480.829 10.6937 480.805 10.6014C480.781 10.5052 480.769 10.4411 480.769 10.409C480.769 10.1163 481.041 9.82358 481.589 9.53488C482.172 9.23416 482.828 9.07779 483.556 9.07779C484.035 9.07779 484.671 9.17402 485.458 9.35846C486.242 9.5429 486.761 9.63513 487.017 9.63513C487.884 9.63513 488.676 9.49479 489.387 9.21412C490.027 8.97755 490.719 8.58059 491.462 8.01925Z"/>
<path fill-rule="evenodd" clip-rule="evenodd" d="M490.75 6.15878C491.198 6.02245 491.63 5.95028 492.038 5.95028C492.237 5.95028 492.333 5.89816 492.333 5.7899C492.333 5.7097 492.026 5.60144 491.402 5.47314C490.379 5.25662 489.515 5.04411 488.808 4.8316C487.877 4.55092 487.385 4.40257 487.337 4.38653C486.657 4.22213 485.958 4.14194 485.238 4.14194C484.787 4.14194 484.195 4.2502 483.468 4.47474C482.74 4.69527 482.017 4.91981 481.293 5.15237C480.953 5.2486 480.49 5.35686 479.91 5.47314C479.646 5.52125 479.514 5.58942 479.514 5.68164C479.514 5.80193 479.69 5.90618 480.042 5.98637C480.658 6.13472 481.269 6.27907 481.885 6.41941C482.476 6.5838 483.064 6.7482 483.651 6.91259C484.423 7.09302 485.166 7.18124 485.89 7.18124C486.921 7.18124 488.54 6.84042 490.75 6.15878ZM486.082 5.4571C487.093 5.4571 487.992 5.50521 488.788 5.59342C489.407 5.66961 489.719 5.72574 489.719 5.76584H489.447C488.54 5.76584 487.609 5.79791 486.661 5.86608C485.714 5.93023 485.214 5.96231 485.174 5.96231C484.879 5.96231 484.579 5.92221 484.267 5.84202C484.007 5.76584 483.875 5.71371 483.875 5.68164C483.883 5.66159 483.899 5.65357 483.923 5.65357H484.047C484.371 5.65357 484.763 5.62149 485.218 5.55734C485.674 5.48917 485.962 5.4571 486.082 5.4571Z"/>
<path d="M3.11782 105.93C3.60948 106.588 4.11713 107.137 4.64076 107.582C5.07646 107.943 5.37225 108.123 5.54013 108.123C5.83193 108.123 6.17969 107.903 6.58341 107.458C6.86721 107.153 7.33488 106.552 7.98243 105.65C8.47409 104.968 8.84982 104.258 9.11364 103.528C9.34148 102.887 9.4534 102.318 9.4534 101.816C9.4534 101.143 9.37346 100.385 9.20158 99.5428C9.0337 98.7008 8.94975 98.1916 8.94975 98.0112C8.94975 97.3536 9.11364 96.6118 9.42942 95.7818C9.62129 95.2886 9.90109 95.0441 10.2768 95.0441C10.3208 95.0441 10.3808 95.0481 10.4647 95.0561H10.6486C10.9564 95.0561 11.1122 94.9238 11.1122 94.6591C11.1122 94.5308 11.0643 94.4185 10.9643 94.3263C10.8684 94.2381 10.7485 94.194 10.6086 94.194C9.24155 94.194 8.33818 96.4514 7.89449 100.966C7.84653 101.443 7.77457 102.346 7.67464 103.677C7.61868 104.491 7.55473 105.032 7.49077 105.305C7.31889 106.01 7.05108 106.56 6.69133 106.953C6.33158 107.35 5.93586 107.546 5.50016 107.546C5.02849 107.546 4.56481 107.221 4.11313 106.572C3.42561 105.585 3.08185 104.455 3.08185 103.172C3.08185 103.007 3.08585 102.743 3.09384 102.378C3.10184 102.013 3.10583 101.732 3.10583 101.536C3.10583 99.4386 2.82203 97.6864 2.25842 96.275C1.76277 95.02 1.21915 94.3905 0.639554 94.3905C0.45968 94.3905 0.307786 94.4466 0.183872 94.5629C0.0599579 94.6752 0 94.8155 0 94.9799C0 95.1764 0.103927 95.2766 0.307785 95.2766C0.371741 95.2766 0.451685 95.2646 0.547618 95.2405C0.639554 95.2165 0.703509 95.2044 0.735487 95.2044C1.03128 95.2044 1.32308 95.4771 1.60688 96.0264C1.91067 96.6118 2.06256 97.2694 2.06256 97.9991C2.06256 98.4843 1.97063 99.1178 1.78675 99.9077C1.60288 100.698 1.51095 101.219 1.51095 101.471C1.51095 102.342 1.65085 103.135 1.92666 103.849C2.16649 104.491 2.56221 105.184 3.11782 105.93Z"/>
<path fill-rule="evenodd" clip-rule="evenodd" d="M4.97253 105.216C5.11243 105.67 5.18039 106.099 5.18039 106.512C5.18039 106.708 5.23635 106.804 5.34027 106.804C5.42421 106.804 5.53214 106.496 5.66005 105.87C5.8719 104.844 6.08775 103.977 6.2996 103.272C6.57541 102.334 6.72331 101.84 6.74329 101.792C6.90318 101.111 6.98712 100.409 6.98712 99.6872C6.98712 99.2341 6.8752 98.6447 6.65536 97.9109C6.43551 97.1812 6.20767 96.4554 5.97983 95.7337C5.8799 95.3889 5.77597 94.9238 5.66005 94.3424C5.61208 94.0777 5.54413 93.9454 5.4522 93.9454C5.32828 93.9454 5.22835 94.1218 5.14441 94.4747C4.99651 95.0922 4.85261 95.7096 4.71671 96.3231C4.63536 96.6177 4.55402 96.9112 4.47268 97.2048L4.47083 97.2114C4.3889 97.5071 4.30698 97.8027 4.22505 98.0994C4.04518 98.8692 3.95324 99.615 3.95324 100.341C3.95324 101.375 4.293 102.999 4.97253 105.216ZM5.67204 100.537C5.67204 101.548 5.62807 102.45 5.54013 103.248C5.46419 103.869 5.40823 104.182 5.36426 104.182V103.913C5.36426 102.999 5.33228 102.069 5.26832 101.115C5.24372 100.749 5.22327 100.451 5.2074 100.219L5.2073 100.218C5.18198 99.8484 5.16839 99.6501 5.16839 99.623C5.16839 99.3303 5.21236 99.0256 5.29231 98.7129C5.36426 98.4522 5.42022 98.3199 5.4522 98.3199C5.46818 98.3279 5.47618 98.344 5.47618 98.368V98.4923C5.47618 98.8211 5.50816 99.21 5.57611 99.6671C5.64006 100.124 5.67204 100.413 5.67204 100.537Z"/>
<path d="M493.417 107.458C493.82 107.903 494.168 108.123 494.464 108.123C494.628 108.123 494.924 107.943 495.359 107.582C495.883 107.137 496.391 106.588 496.882 105.93C497.438 105.184 497.834 104.491 498.073 103.849C498.349 103.135 498.489 102.342 498.489 101.471C498.489 101.219 498.397 100.698 498.213 99.9077C498.029 99.1178 497.937 98.4843 497.937 97.9991C497.937 97.2694 498.089 96.6118 498.389 96.0264C498.677 95.4771 498.969 95.2044 499.265 95.2044C499.297 95.2044 499.36 95.2165 499.452 95.2405C499.548 95.2646 499.628 95.2766 499.692 95.2766C499.896 95.2766 500 95.1764 500 94.9799C500 94.8155 499.936 94.6752 499.816 94.5629C499.692 94.4466 499.54 94.3905 499.36 94.3905C498.781 94.3905 498.237 95.02 497.742 96.275C497.178 97.6864 496.894 99.4386 496.894 101.536C496.894 101.732 496.898 102.013 496.906 102.378C496.914 102.743 496.918 103.007 496.918 103.172C496.918 104.455 496.574 105.585 495.887 106.572C495.435 107.221 494.976 107.546 494.5 107.546C494.064 107.546 493.668 107.35 493.309 106.953C492.945 106.56 492.681 106.01 492.509 105.305C492.445 105.032 492.381 104.491 492.325 103.677C492.225 102.346 492.153 101.443 492.106 100.966C491.662 96.4514 490.758 94.194 489.391 94.194C489.252 94.194 489.132 94.2381 489.036 94.3263C488.936 94.4185 488.888 94.5308 488.888 94.6591C488.888 94.9238 489.044 95.0561 489.351 95.0561H489.535C489.619 95.0481 489.683 95.0441 489.723 95.0441C490.099 95.0441 490.379 95.2886 490.571 95.7818C490.886 96.6118 491.05 97.3536 491.05 98.0112C491.05 98.1916 490.966 98.7008 490.798 99.5428C490.631 100.385 490.547 101.143 490.547 101.816C490.547 102.318 490.659 102.887 490.886 103.528C491.15 104.258 491.526 104.968 492.018 105.65C492.665 106.552 493.133 107.153 493.417 107.458Z"/>
<path fill-rule="evenodd" clip-rule="evenodd" d="M494.34 105.87C494.468 106.496 494.576 106.804 494.66 106.804C494.764 106.804 494.816 106.708 494.816 106.512C494.816 106.099 494.888 105.67 495.027 105.216C495.707 102.999 496.047 101.375 496.047 100.341C496.047 99.615 495.955 98.8692 495.775 98.0994C495.693 97.8027 495.611 97.507 495.529 97.2113L495.283 96.3231C495.147 95.7096 495.003 95.0922 494.856 94.4747C494.772 94.1218 494.672 93.9454 494.548 93.9454C494.46 93.9454 494.388 94.0777 494.34 94.3424C494.224 94.9238 494.12 95.3889 494.02 95.7337C493.788 96.4554 493.565 97.1812 493.345 97.9109C493.125 98.6447 493.013 99.2341 493.013 99.6872C493.013 100.409 493.097 101.111 493.261 101.792C493.27 101.829 493.359 102.129 493.527 102.692L493.7 103.272C493.912 103.977 494.128 104.844 494.34 105.87ZM494.636 103.913V104.182C494.592 104.182 494.536 103.869 494.464 103.248C494.372 102.45 494.328 101.548 494.328 100.537C494.328 100.413 494.36 100.124 494.424 99.6671C494.492 99.21 494.524 98.8211 494.524 98.4923V98.368C494.524 98.344 494.532 98.3279 494.548 98.3199C494.58 98.3199 494.636 98.4522 494.708 98.7129C494.792 99.0256 494.832 99.3303 494.832 99.623C494.832 99.6671 494.8 100.164 494.732 101.115C494.668 102.069 494.636 102.999 494.636 103.913Z"/>
<path d="M492.985 110.457C493.429 110.052 493.648 109.703 493.648 109.407C493.648 109.242 493.469 108.941 493.109 108.508C492.665 107.983 492.118 107.474 491.462 106.981C490.719 106.423 490.027 106.022 489.387 105.786C488.676 105.505 487.884 105.369 487.017 105.369C486.761 105.369 486.242 105.461 485.458 105.646C484.671 105.83 484.035 105.922 483.556 105.922C482.828 105.922 482.172 105.77 481.589 105.465C481.041 105.176 480.769 104.888 480.769 104.591C480.769 104.559 480.781 104.495 480.805 104.399C480.829 104.306 480.841 104.226 480.841 104.158C480.841 103.957 480.741 103.853 480.546 103.853C480.382 103.853 480.242 103.913 480.13 104.038C480.014 104.158 479.958 104.31 479.958 104.491C479.958 105.076 480.582 105.617 481.837 106.119C483.244 106.684 484.991 106.969 487.081 106.969C487.273 106.969 487.557 106.965 487.92 106.957C488.284 106.949 488.548 106.945 488.712 106.945C489.991 106.945 491.118 107.289 492.102 107.979C492.749 108.428 493.069 108.893 493.069 109.37C493.069 109.804 492.877 110.204 492.481 110.565C492.09 110.926 491.538 111.195 490.838 111.367C490.567 111.431 490.027 111.492 489.216 111.552C487.889 111.648 486.989 111.724 486.513 111.772C482.013 112.217 479.758 113.123 479.758 114.495C479.758 114.635 479.806 114.751 479.894 114.852C479.986 114.952 480.098 115 480.226 115C480.49 115 480.618 114.844 480.618 114.531V114.346C480.61 114.266 480.61 114.202 480.61 114.162C480.61 113.785 480.853 113.5 481.345 113.312C482.172 112.991 482.912 112.831 483.568 112.831C483.747 112.831 484.255 112.915 485.094 113.083C485.934 113.252 486.689 113.336 487.361 113.336C487.861 113.336 488.428 113.22 489.068 112.991C489.795 112.731 490.503 112.35 491.182 111.856C492.082 111.211 492.681 110.742 492.985 110.457Z"/>
<path fill-rule="evenodd" clip-rule="evenodd" d="M491.402 109.531C492.026 109.399 492.333 109.29 492.333 109.21C492.333 109.102 492.237 109.05 492.038 109.05C491.63 109.05 491.198 108.982 490.75 108.841C488.54 108.16 486.921 107.819 485.89 107.819C485.166 107.819 484.423 107.907 483.651 108.087C483.064 108.252 482.476 108.416 481.885 108.581C481.269 108.721 480.658 108.865 480.042 109.014C479.69 109.094 479.514 109.198 479.514 109.322C479.514 109.411 479.646 109.483 479.91 109.531C480.49 109.647 480.953 109.751 481.293 109.852C482.017 110.08 482.74 110.305 483.468 110.529C484.195 110.75 484.787 110.862 485.238 110.862C485.958 110.862 486.657 110.778 487.337 110.613C487.385 110.597 487.877 110.449 488.808 110.172C489.515 109.956 490.379 109.743 491.402 109.531ZM489.447 109.234H489.719C489.719 109.274 489.407 109.334 488.788 109.407C487.992 109.499 487.093 109.543 486.082 109.543C485.962 109.543 485.674 109.511 485.218 109.443C484.763 109.379 484.371 109.346 484.047 109.346H483.923C483.899 109.346 483.883 109.338 483.875 109.322C483.875 109.286 484.007 109.234 484.267 109.162C484.579 109.078 484.879 109.038 485.174 109.038C485.214 109.038 485.714 109.07 486.661 109.138C487.609 109.202 488.54 109.234 489.447 109.234Z"/>
<path d="M6.89112 108.508C7.33482 107.983 7.88243 107.474 8.53798 106.981C9.28146 106.423 9.97297 106.022 10.6125 105.786C11.324 105.505 12.1155 105.369 12.9829 105.369C13.2347 105.369 13.7543 105.461 14.5418 105.646C15.3292 105.83 15.9648 105.922 16.4445 105.922C17.1759 105.922 17.8275 105.77 18.4111 105.465C18.9587 105.176 19.2345 104.888 19.2345 104.591C19.2345 104.559 19.2225 104.495 19.1945 104.399C19.1706 104.306 19.1586 104.226 19.1586 104.158C19.1586 103.957 19.2585 103.853 19.4544 103.853C19.6182 103.853 19.7581 103.913 19.8701 104.038C19.986 104.158 20.0419 104.31 20.0419 104.491C20.0419 105.076 19.4184 105.617 18.1633 106.119C16.7562 106.684 15.0095 106.969 12.9189 106.969C12.7231 106.969 12.4433 106.965 12.0795 106.957C11.7158 106.949 11.4519 106.945 11.2881 106.945C10.0129 106.945 8.88174 107.289 7.89842 107.979C7.25087 108.428 6.9311 108.893 6.9311 109.37C6.9311 109.804 7.12696 110.204 7.51869 110.565C7.91041 110.926 8.45803 111.195 9.16154 111.367C9.43335 111.431 9.97297 111.492 10.7844 111.552C12.1115 111.648 13.0109 111.724 13.4865 111.772C17.9874 112.217 20.2418 113.123 20.2418 114.495C20.2418 114.635 20.1938 114.751 20.1059 114.852C20.014 114.952 19.902 115 19.7741 115C19.5103 115 19.3784 114.844 19.3784 114.531V114.346C19.3864 114.266 19.3904 114.202 19.3904 114.162C19.3904 113.785 19.1466 113.5 18.6549 113.312C17.8275 112.991 17.088 112.831 16.4325 112.831C16.2526 112.831 15.7449 112.915 14.9055 113.083C14.0661 113.252 13.3106 113.336 12.6391 113.336C12.1395 113.336 11.5719 113.22 10.9323 112.991C10.2048 112.731 9.5013 112.35 8.81778 111.856C7.91841 111.211 7.31883 110.742 7.01504 110.457C6.57135 110.052 6.3515 109.703 6.3515 109.407C6.3515 109.242 6.53138 108.941 6.89112 108.508Z"/>
<path fill-rule="evenodd" clip-rule="evenodd" d="M7.96238 109.05C8.37009 109.05 8.80179 108.982 9.24948 108.841C11.4599 108.16 13.0828 107.819 14.1141 107.819C14.8336 107.819 15.5771 107.907 16.3485 108.087C16.9361 108.252 17.5237 108.416 18.1153 108.581C18.7269 108.721 19.3424 108.865 19.958 109.014C20.3098 109.094 20.4856 109.198 20.4856 109.322C20.4856 109.411 20.3537 109.483 20.0899 109.531C19.5103 109.647 19.0466 109.751 18.7069 109.852C17.9834 110.08 17.2599 110.305 16.5324 110.529C15.8009 110.75 15.2133 110.862 14.7616 110.862C14.0421 110.862 13.3426 110.778 12.6631 110.613C12.6151 110.597 12.1235 110.449 11.1881 110.172C10.4846 109.956 9.62122 109.743 8.59793 109.531C7.97837 109.399 7.66658 109.29 7.66658 109.21C7.66658 109.102 7.76252 109.05 7.96238 109.05ZM11.2161 109.407C12.0076 109.499 12.9069 109.543 13.9182 109.543C14.0381 109.543 14.3259 109.511 14.7816 109.443C15.2373 109.379 15.629 109.346 15.9528 109.346H16.0767C16.1007 109.346 16.1167 109.338 16.1247 109.322C16.1247 109.286 15.9928 109.234 15.733 109.162C15.4212 109.078 15.1214 109.038 14.8256 109.038C14.7816 109.038 14.29 109.07 13.3386 109.138C12.3913 109.202 11.4599 109.234 10.5526 109.234H10.2808C10.2808 109.274 10.5925 109.334 11.2161 109.407Z"/>
<path d="M23.0439 109.266C22.972 109.266 22.916 109.206 22.916 109.138C22.916 109.066 22.972 109.01 23.0439 109.01H476.956C477.024 109.01 477.084 109.066 477.084 109.138C477.084 109.206 477.024 109.266 476.956 109.266H23.0439Z"/>
<path d="M495.359 7.41789C495.883 7.86295 496.391 8.41227 496.882 9.06985C497.438 9.81564 497.834 10.5093 498.073 11.1508C498.349 11.8646 498.489 12.6585 498.489 13.5286C498.489 13.7852 498.397 14.3064 498.213 15.0923C498.029 15.8822 497.937 16.5197 497.937 17.0009C497.937 17.7346 498.089 18.3882 498.389 18.9736C498.677 19.5229 498.969 19.7996 499.265 19.7996C499.297 19.7996 499.36 19.7876 499.452 19.7595C499.548 19.7354 499.628 19.7234 499.692 19.7234C499.896 19.7234 500 19.8237 500 20.0201C500 20.1845 499.936 20.3249 499.816 20.4411C499.692 20.5534 499.54 20.6136 499.36 20.6136C498.781 20.6136 498.237 19.984 497.742 18.729C497.178 17.3136 496.894 15.5614 496.894 13.4684C496.894 13.2719 496.898 12.9873 496.906 12.6224C496.914 12.2575 496.918 11.9929 496.918 11.8285C496.918 10.5494 496.574 9.41468 495.887 8.42831C495.435 7.78276 494.976 7.45798 494.5 7.45798C494.064 7.45798 493.668 7.65445 493.309 8.0474C492.945 8.44034 492.681 8.99367 492.509 9.69936C492.445 9.96801 492.381 10.5093 492.325 11.3233C492.225 12.6545 492.153 13.5566 492.106 14.0338C491.662 18.5486 490.758 20.81 489.391 20.81C489.252 20.81 489.132 20.7619 489.036 20.6737C488.936 20.5815 488.888 20.4732 488.888 20.3409C488.888 20.0763 489.044 19.948 489.351 19.948H489.535C489.619 19.956 489.683 19.96 489.723 19.96C490.099 19.96 490.379 19.7114 490.571 19.2182C490.886 18.3882 491.05 17.6464 491.05 16.9889C491.05 16.8084 490.966 16.2992 490.798 15.4572C490.631 14.6152 490.547 13.8573 490.547 13.1837C490.547 12.6825 490.659 12.1132 490.886 11.4716C491.15 10.7419 491.526 10.0362 492.018 9.35453C492.665 8.44836 493.133 7.84692 493.417 7.54218C493.82 7.09712 494.168 6.87659 494.464 6.87659C494.628 6.87659 494.924 7.05702 495.359 7.41789Z"/>
<path fill-rule="evenodd" clip-rule="evenodd" d="M494.816 8.49247C494.816 8.90145 494.888 9.33449 495.027 9.78356C495.707 12.0009 496.047 13.6288 496.047 14.6633C496.047 15.385 495.955 16.1308 495.775 16.9047C495.693 17.1994 495.611 17.4951 495.529 17.7908C495.447 18.0865 495.365 18.3822 495.283 18.6769C495.147 19.2944 495.003 19.9079 494.856 20.5253C494.772 20.8782 494.672 21.0546 494.548 21.0546C494.46 21.0546 494.388 20.9223 494.34 20.6617C494.224 20.0763 494.12 19.6152 494.02 19.2703C493.788 18.5446 493.565 17.8188 493.345 17.0891C493.125 16.3593 493.013 15.7659 493.013 15.3128C493.013 14.5911 493.097 13.8894 493.261 13.2078C493.272 13.1637 493.396 12.7469 493.632 11.9603L493.634 11.9541L493.638 11.9404L493.641 11.9322L493.642 11.9287L493.7 11.7322C493.912 11.0225 494.128 10.1565 494.34 9.13C494.468 8.5085 494.576 8.19575 494.66 8.19575C494.764 8.19575 494.816 8.29599 494.816 8.49247ZM494.464 11.7563C494.372 12.5502 494.328 13.4564 494.328 14.4668C494.328 14.5871 494.36 14.8798 494.424 15.3329C494.492 15.79 494.524 16.1829 494.524 16.5077V16.632C494.524 16.6561 494.532 16.6761 494.548 16.6801C494.58 16.6801 494.636 16.5518 494.708 16.2872C494.792 15.9744 494.832 15.6737 494.832 15.377C494.832 15.3369 494.8 14.8397 494.732 13.8854C494.668 12.9351 494.636 12.0009 494.636 11.0907V10.818C494.592 10.818 494.536 11.1308 494.464 11.7563Z"/>
<path d="M7.01504 4.54691C6.57135 4.94788 6.3515 5.30072 6.3515 5.59342C6.3515 5.75782 6.53138 6.05854 6.89112 6.49158C7.33482 7.01684 7.88243 7.52606 8.53798 8.01925C9.28146 8.58059 9.97297 8.97755 10.6125 9.21412C11.324 9.49479 12.1155 9.63513 12.9829 9.63513C13.2347 9.63513 13.7543 9.5429 14.5418 9.35846C15.3292 9.17402 15.9648 9.07779 16.4445 9.07779C17.1759 9.07779 17.8275 9.23416 18.4111 9.53488C18.9587 9.82358 19.2345 10.1163 19.2345 10.409C19.2345 10.4411 19.2225 10.5052 19.1945 10.6014C19.1706 10.6937 19.1586 10.7739 19.1586 10.842C19.1586 11.0465 19.2585 11.1508 19.4544 11.1508C19.6182 11.1508 19.7581 11.0866 19.8701 10.9663C19.986 10.842 20.0419 10.6897 20.0419 10.5092C20.0419 9.92382 19.4184 9.38252 18.1633 8.88132C16.7562 8.31596 15.0095 8.03128 12.9189 8.03128C12.8129 8.03128 12.6824 8.03362 12.5272 8.03641C12.3957 8.03878 12.2463 8.04147 12.0795 8.0433C11.9707 8.0457 11.8708 8.0481 11.7798 8.05029C11.5668 8.05541 11.4029 8.05934 11.2881 8.05934C10.0129 8.05934 8.88174 7.71051 7.89842 7.02085C7.25087 6.57177 6.9311 6.10666 6.9311 5.62951C6.9311 5.19647 7.12696 4.79551 7.51869 4.43464C7.91041 4.07378 8.45803 3.80914 9.16154 3.63673C9.43335 3.56857 9.97297 3.50842 10.7844 3.45229C12.1115 3.35205 13.0109 3.27987 13.4865 3.22775C17.9874 2.78669 20.2418 1.88051 20.2418 0.509222C20.2418 0.368885 20.1938 0.248596 20.1059 0.148356C20.014 0.0521251 19.902 0 19.7741 0C19.5103 0 19.3784 0.156376 19.3784 0.469126V0.653569C19.3864 0.737772 19.3904 0.797916 19.3904 0.838011C19.3904 1.21893 19.1466 1.4996 18.6549 1.68805C17.8275 2.00882 17.088 2.16921 16.4325 2.16921C16.2526 2.16921 15.7449 2.085 14.9055 1.9166C14.0661 1.7482 13.3106 1.66399 12.6391 1.66399C12.1395 1.66399 11.5719 1.78027 10.9323 2.00882C10.2048 2.27346 9.5013 2.65036 8.81778 3.14354C7.91841 3.7931 7.31883 4.25822 7.01504 4.54691Z"/>
<path fill-rule="evenodd" clip-rule="evenodd" d="M8.59793 5.47314C7.97837 5.60144 7.66658 5.7097 7.66658 5.7899C7.66658 5.89816 7.76252 5.95028 7.96238 5.95028C8.37009 5.95028 8.80179 6.02245 9.24948 6.15878C11.4599 6.84042 13.0828 7.18124 14.1141 7.18124C14.8336 7.18124 15.5771 7.09302 16.3485 6.91259C16.9361 6.7482 17.5237 6.5838 18.1153 6.41941C18.7269 6.27907 19.3424 6.13472 19.958 5.98637C20.3098 5.90618 20.4856 5.80193 20.4856 5.68164C20.4856 5.58942 20.3537 5.52125 20.0899 5.47314C19.5103 5.35686 19.0466 5.2486 18.7069 5.15237C17.9834 4.91981 17.2599 4.69527 16.5324 4.47474C15.8009 4.2502 15.2133 4.14194 14.7616 4.14194C14.0421 4.14194 13.3426 4.22213 12.6631 4.38653C12.6151 4.40257 12.1235 4.55092 11.1881 4.8316C10.4846 5.04411 9.62122 5.25662 8.59793 5.47314ZM10.5526 5.76584H10.2808C10.2808 5.72574 10.5925 5.66961 11.2161 5.59342C12.0076 5.50521 12.9069 5.4571 13.9182 5.4571C14.0381 5.4571 14.3259 5.48917 14.7816 5.55734C15.2373 5.62149 15.629 5.65357 15.9528 5.65357H16.0767C16.1007 5.65357 16.1167 5.66159 16.1247 5.68164C16.1247 5.71371 15.9928 5.76584 15.733 5.84202C15.4212 5.92221 15.1214 5.96231 14.8256 5.96231C14.7816 5.96231 14.29 5.93023 13.3386 5.86608C12.3913 5.79791 11.4599 5.76584 10.5526 5.76584Z"/>
<path d="M5.54013 6.87659C5.83193 6.87659 6.17969 7.09712 6.58341 7.54218C6.86721 7.84692 7.33488 8.44836 7.98243 9.35453C8.47409 10.0362 8.84982 10.7419 9.11364 11.4716C9.34148 12.1132 9.4534 12.6825 9.4534 13.1837C9.4534 13.8573 9.37346 14.6152 9.20158 15.4572C9.0337 16.2992 8.94975 16.8084 8.94975 16.9889C8.94975 17.6464 9.11364 18.3882 9.42942 19.2182C9.62129 19.7114 9.90109 19.96 10.2768 19.96C10.3208 19.96 10.3808 19.956 10.4647 19.948H10.6486C10.9564 19.948 11.1122 20.0763 11.1122 20.3409C11.1122 20.4732 11.0643 20.5815 10.9643 20.6737C10.8684 20.7619 10.7485 20.81 10.6086 20.81C9.24155 20.81 8.33818 18.5486 7.89449 14.0338C7.84653 13.5566 7.77457 12.6545 7.67464 11.3233C7.61868 10.5093 7.55473 9.96801 7.49077 9.69936C7.31889 8.99367 7.05108 8.44034 6.69133 8.0474C6.33158 7.65445 5.93586 7.45798 5.50016 7.45798C5.02849 7.45798 4.56481 7.78276 4.11313 8.42831C3.42561 9.41468 3.08185 10.5494 3.08185 11.8285C3.08185 11.9929 3.08585 12.2575 3.09384 12.6224C3.10184 12.9873 3.10583 13.2719 3.10583 13.4684C3.10583 15.5614 2.82203 17.3136 2.25842 18.729C1.76277 19.984 1.21915 20.6136 0.639554 20.6136C0.45968 20.6136 0.307785 20.5534 0.183872 20.4411C0.0599579 20.3249 0 20.1845 0 20.0201C0 19.8237 0.103927 19.7234 0.307785 19.7234C0.371741 19.7234 0.451685 19.7354 0.547618 19.7595C0.639554 19.7876 0.703509 19.7996 0.735487 19.7996C1.03128 19.7996 1.32308 19.5229 1.60688 18.9736C1.91067 18.3882 2.06256 17.7346 2.06256 17.0009C2.06256 16.5197 1.97063 15.8822 1.78675 15.0923C1.60288 14.3064 1.51095 13.7852 1.51095 13.5286C1.51095 12.6585 1.65085 11.8646 1.92666 11.1508C2.16649 10.5093 2.56221 9.81564 3.11782 9.06985C3.60948 8.41227 4.11713 7.86295 4.64076 7.41789C5.07646 7.05702 5.37225 6.87659 5.54013 6.87659Z"/>
<path fill-rule="evenodd" clip-rule="evenodd" d="M5.34027 8.19575C5.42421 8.19575 5.53214 8.5085 5.66005 9.13C5.8719 10.1565 6.08775 11.0225 6.2996 11.7322C6.57541 12.6665 6.72331 13.1597 6.74329 13.2078C6.90318 13.8894 6.98712 14.5911 6.98712 15.3128C6.98712 15.7659 6.8752 16.3593 6.65536 17.0891C6.43551 17.8188 6.20767 18.5446 5.97983 19.2703C5.8799 19.6152 5.77597 20.0763 5.66005 20.6617C5.61208 20.9223 5.54413 21.0546 5.4522 21.0546C5.32828 21.0546 5.22835 20.8782 5.14441 20.5253C4.99651 19.9079 4.85261 19.2944 4.71671 18.6769C4.63476 18.3822 4.55282 18.0865 4.47087 17.7908C4.38893 17.4951 4.30699 17.1994 4.22505 16.9047C4.04518 16.1308 3.95324 15.385 3.95324 14.6633C3.95324 13.6288 4.293 12.0009 4.97253 9.78356C5.11243 9.33449 5.18039 8.90145 5.18039 8.49247C5.18039 8.29599 5.23635 8.19575 5.34027 8.19575ZM5.36426 10.818V11.0907C5.36426 12.0009 5.33228 12.9351 5.26832 13.8854C5.24184 14.2805 5.22016 14.5973 5.20384 14.8357C5.18074 15.1731 5.16839 15.3535 5.16839 15.377C5.16839 15.6737 5.21236 15.9744 5.29231 16.2872C5.36426 16.5518 5.42022 16.6801 5.4522 16.6801C5.46818 16.6761 5.47618 16.6561 5.47618 16.632V16.5077C5.47618 16.1829 5.50816 15.79 5.57611 15.3329C5.64006 14.8798 5.67204 14.5871 5.67204 14.4668C5.67204 13.4564 5.62807 12.5502 5.54013 11.7563C5.46419 11.1308 5.40823 10.818 5.36426 10.818Z"/>
<path d="M22.916 5.86213C22.916 5.9303 22.972 5.99044 23.0439 5.99044H476.952C477.028 5.99044 477.084 5.9303 477.084 5.86213C477.084 5.78996 477.028 5.73383 476.952 5.73383H23.0439C22.972 5.73383 22.916 5.78996 22.916 5.86213Z"/>
<path d="M23.0439 3.85322C22.832 3.85322 22.6602 3.68081 22.6602 3.4683C22.6602 3.25178 22.832 3.08337 23.0439 3.08337H476.956C477.168 3.08337 477.34 3.25178 477.34 3.4683C477.34 3.68081 477.168 3.85322 476.956 3.85322H23.0439Z"/>
<path d="M22.6602 111.536C22.6602 111.748 22.832 111.921 23.0439 111.921H476.956C477.168 111.921 477.34 111.748 477.34 111.536C477.34 111.319 477.168 111.151 476.956 111.151H23.0439C22.832 111.151 22.6602 111.319 22.6602 111.536Z"/>
<path d="M5.09247 90.405V23.741C5.09247 23.6688 5.15243 23.6127 5.22438 23.6127C5.29233 23.6127 5.35229 23.6688 5.35229 23.741V90.405C5.35229 90.4731 5.29233 90.5333 5.22438 90.5333C5.15243 90.5333 5.09247 90.4731 5.09247 90.405Z"/>
<path d="M2.23041 23.7409V90.4049C2.23041 90.6174 2.40229 90.7898 2.61014 90.7898C2.82599 90.7898 2.99787 90.6174 2.99787 90.4049V23.7409C2.99787 23.5284 2.82599 23.356 2.61014 23.356C2.40229 23.356 2.23041 23.5284 2.23041 23.7409Z"/>
<path d="M494.648 90.405V23.741C494.648 23.6688 494.708 23.6127 494.776 23.6127C494.848 23.6127 494.904 23.6688 494.904 23.741V90.405C494.904 90.4731 494.848 90.5333 494.776 90.5333C494.708 90.5333 494.648 90.4731 494.648 90.405Z"/>
<path d="M496.89 23.7409V90.4049C496.89 90.6174 497.062 90.7898 497.274 90.7898C497.486 90.7898 497.658 90.6174 497.658 90.4049V23.7409C497.658 23.5284 497.486 23.356 497.274 23.356C497.062 23.356 496.89 23.5284 496.89 23.7409Z"/>
</g>
</svg>
