<svg width="30" height="15" viewBox="0 0 30 15" xmlns="http://www.w3.org/2000/svg" fill="rgba(255, 255, 255, .7)">
<path d="M8.49609 5.625C8.63672 5.63281 8.73828 5.65625 8.80078 5.69531C8.86328 5.72656 8.90234 5.76953 8.91797 5.82422C8.93359 5.87891 8.93359 5.94141 8.91797 6.01172C8.91016 6.07422 8.90234 6.13672 8.89453 6.19922C8.64453 6.32422 8.3125 6.41406 7.89844 6.46875C7.49219 6.52344 7.05859 6.5625 6.59766 6.58594C6.64453 6.71875 6.71094 6.86328 6.79688 7.01953C6.88281 7.17578 6.95312 7.33203 7.00781 7.48828C7.0625 7.63672 7.08984 7.78516 7.08984 7.93359C7.08984 8.08203 7.02734 8.21484 6.90234 8.33203C6.94922 8.44141 6.96484 8.53125 6.94922 8.60156C6.94141 8.67188 6.91406 8.73047 6.86719 8.77734C6.82031 8.81641 6.76172 8.85156 6.69141 8.88281C6.62109 8.91406 6.55078 8.94531 6.48047 8.97656C6.23828 8.85156 5.99219 8.63281 5.74219 8.32031C5.5 8.00781 5.26562 7.67188 5.03906 7.3125C4.85938 7.625 4.72266 7.875 4.62891 8.0625C4.53516 8.24219 4.47656 8.375 4.45312 8.46094C4.33594 8.59375 4.22656 8.69141 4.125 8.75391C4.02344 8.81641 3.92188 8.85938 3.82031 8.88281C3.71875 8.89844 3.61328 8.90625 3.50391 8.90625C3.40234 8.90625 3.29297 8.91016 3.17578 8.91797C3.14453 8.85547 3.07031 8.80859 2.95312 8.77734C2.83594 8.73828 2.72656 8.73828 2.625 8.77734C2.66406 8.71484 2.65625 8.65234 2.60156 8.58984C2.55469 8.52734 2.50391 8.5 2.44922 8.50781C2.51172 8.375 2.58594 8.24219 2.67188 8.10938C2.76562 7.96875 2.85547 7.83203 2.94141 7.69922C3.03516 7.56641 3.11719 7.4375 3.1875 7.3125C3.26562 7.17969 3.31641 7.05859 3.33984 6.94922C3.35547 6.91797 3.375 6.89062 3.39844 6.86719C3.42188 6.83594 3.44531 6.80469 3.46875 6.77344C3.17969 6.8125 2.94531 6.84766 2.76562 6.87891C2.59375 6.91016 2.46875 6.94141 2.39062 6.97266C2.20312 6.96484 2.05859 6.94141 1.95703 6.90234C1.85547 6.86328 1.77344 6.8125 1.71094 6.75C1.64844 6.67969 1.59375 6.60547 1.54688 6.52734C1.50781 6.44922 1.46094 6.36719 1.40625 6.28125C1.45312 6.21875 1.47266 6.13672 1.46484 6.03516C1.45703 5.92578 1.41016 5.84375 1.32422 5.78906C1.39453 5.77344 1.44922 5.73047 1.48828 5.66016C1.53516 5.58984 1.54688 5.53516 1.52344 5.49609C1.67969 5.46484 1.84375 5.44531 2.01562 5.4375C2.19531 5.42188 2.37109 5.41016 2.54297 5.40234C2.71484 5.38672 2.87891 5.36719 3.03516 5.34375C3.19141 5.32031 3.32812 5.28516 3.44531 5.23828H3.67969C3.52344 5.03516 3.39453 4.87891 3.29297 4.76953C3.19141 4.66016 3.10938 4.58203 3.04688 4.53516C2.97656 4.39453 2.94141 4.27344 2.94141 4.17188C2.94141 4.07031 2.96094 3.98047 3 3.90234C3.03906 3.81641 3.08984 3.73438 3.15234 3.65625C3.21484 3.57812 3.27734 3.49219 3.33984 3.39844C3.41797 3.39062 3.50781 3.35156 3.60938 3.28125C3.71875 3.21094 3.78125 3.12891 3.79688 3.03516C3.83594 3.08203 3.90234 3.10156 3.99609 3.09375C4.08984 3.07812 4.15234 3.05078 4.18359 3.01172C4.27734 3.11328 4.36719 3.22656 4.45312 3.35156C4.53906 3.47656 4.62109 3.60156 4.69922 3.72656C4.78516 3.84375 4.86719 3.95703 4.94531 4.06641C5.03125 4.16797 5.125 4.25 5.22656 4.3125C5.34375 4.23438 5.45703 4.12891 5.56641 3.99609C5.67578 3.86328 5.78906 3.74219 5.90625 3.63281C6.02344 3.52344 6.14844 3.4375 6.28125 3.375C6.41406 3.3125 6.55469 3.28906 6.70312 3.30469C6.79688 3.20312 6.87891 3.13672 6.94922 3.10547C7.01953 3.07422 7.08594 3.06641 7.14844 3.08203C7.21875 3.08984 7.28125 3.11328 7.33594 3.15234C7.39844 3.18359 7.46094 3.21484 7.52344 3.24609C7.50781 3.48047 7.40625 3.76562 7.21875 4.10156C7.03125 4.4375 6.8125 4.78125 6.5625 5.13281C6.72656 5.14844 6.91016 5.15625 7.11328 5.15625C7.31641 5.15625 7.51172 5.16797 7.69922 5.19141C7.88672 5.21484 8.05469 5.25781 8.20312 5.32031C8.35156 5.38281 8.44922 5.48438 8.49609 5.625Z"/>
<path d="M11.8008 3.72656C11.8008 3.79688 11.7891 3.88281 11.7656 3.98438C11.75 4.08594 11.7344 4.1875 11.7188 4.28906C11.7031 4.39062 11.6992 4.48438 11.707 4.57031C11.7148 4.64844 11.75 4.69922 11.8125 4.72266C11.6719 5.13672 11.5742 5.48438 11.5195 5.76562C11.4727 6.04688 11.4297 6.31641 11.3906 6.57422C11.3594 6.82422 11.3164 7.08984 11.2617 7.37109C11.207 7.65234 11.1094 7.99609 10.9688 8.40234C10.8828 8.65234 10.7773 8.82812 10.6523 8.92969C10.5273 9.02344 10.3945 9.07031 10.2539 9.07031C10.1133 9.07031 9.96875 9.03125 9.82031 8.95312C9.67188 8.875 9.53516 8.78906 9.41016 8.69531C9.38672 8.54688 9.38281 8.36719 9.39844 8.15625C9.42188 7.9375 9.44922 7.71094 9.48047 7.47656C9.51172 7.24219 9.54297 7.01953 9.57422 6.80859C9.60547 6.58984 9.62891 6.40625 9.64453 6.25781C9.72266 6.17188 9.77734 6.10156 9.80859 6.04688C9.83984 5.99219 9.85938 5.93359 9.86719 5.87109C9.88281 5.80859 9.89453 5.73047 9.90234 5.63672C9.91016 5.54297 9.92969 5.41016 9.96094 5.23828C9.97656 5.15234 9.96875 5.07812 9.9375 5.01562C9.91406 4.94531 9.91016 4.87891 9.92578 4.81641C9.94141 4.78516 9.96484 4.76172 9.99609 4.74609C10.0352 4.73047 10.0586 4.70312 10.0664 4.66406C10.0977 4.5625 10.1055 4.48438 10.0898 4.42969C10.0742 4.36719 10.0859 4.29297 10.125 4.20703C10.1641 4.14453 10.2109 4.04688 10.2656 3.91406C10.3281 3.77344 10.3516 3.62891 10.3359 3.48047C10.4062 3.42578 10.4727 3.36328 10.5352 3.29297C10.5977 3.22266 10.6602 3.16016 10.7227 3.10547C10.793 3.04297 10.8672 2.99219 10.9453 2.95312C11.0312 2.91406 11.1328 2.89453 11.25 2.89453C11.3125 2.98047 11.3594 3.0625 11.3906 3.14062C11.4219 3.21875 11.4492 3.29297 11.4727 3.36328C11.5039 3.43359 11.543 3.5 11.5898 3.5625C11.6367 3.625 11.707 3.67969 11.8008 3.72656ZM10.6406 10.3945C10.6562 10.457 10.668 10.5156 10.6758 10.5703C10.6836 10.625 10.6914 10.6836 10.6992 10.7461C10.6523 10.9102 10.6016 11.0586 10.5469 11.1914C10.5234 11.2461 10.5078 11.2812 10.5 11.2969C10.4922 11.3125 10.4883 11.3242 10.4883 11.332C10.4883 11.3398 10.4922 11.3516 10.5 11.3672C10.5078 11.375 10.5117 11.4062 10.5117 11.4609L10.4531 11.6016C10.4141 11.6562 10.3672 11.6992 10.3125 11.7305C10.2656 11.7617 10.2148 11.7891 10.1602 11.8125C10.1367 11.8281 10.1094 11.8398 10.0781 11.8477C10.0547 11.8633 10.0352 11.8789 10.0195 11.8945L9.98438 12.0352L9.82031 12.0586C9.69531 12.0898 9.58203 12.1055 9.48047 12.1055H9.35156C9.25781 12.0195 9.18359 11.9531 9.12891 11.9062C9.07422 11.8594 9.01172 11.8164 8.94141 11.7773C8.85547 11.6289 8.80469 11.5 8.78906 11.3906C8.77344 11.2891 8.75391 11.2227 8.73047 11.1914L8.56641 11.0273L8.70703 10.9219L8.56641 10.6992C8.66016 10.6289 8.73047 10.5781 8.77734 10.5469C8.82422 10.5156 8.86328 10.4844 8.89453 10.4531C8.93359 10.4141 8.97266 10.3672 9.01172 10.3125C9.05078 10.2578 9.11328 10.168 9.19922 10.043L9.30469 9.89062L9.44531 9.97266C9.48438 9.99609 9.55469 10.0195 9.65625 10.043C9.76562 10.0586 9.85938 10.0742 9.9375 10.0898C10.0625 10.1289 10.1836 10.1602 10.3008 10.1836C10.4258 10.1992 10.5234 10.2383 10.5938 10.3008L10.6406 10.3945Z"/>
<path d="M19.1719 8.4375C19.3516 8.47656 19.457 8.52734 19.4883 8.58984C19.5195 8.65234 19.5078 8.72266 19.4531 8.80078C19.3984 8.87109 19.3203 8.94531 19.2188 9.02344C19.1172 9.10156 19.0195 9.16797 18.9258 9.22266C18.8398 9.20703 18.7461 9.22266 18.6445 9.26953C18.5508 9.30859 18.4609 9.35547 18.375 9.41016C18.2734 9.39453 18.168 9.38672 18.0586 9.38672C17.957 9.38672 17.8516 9.38672 17.7422 9.38672C17.6875 9.54297 17.625 9.69531 17.5547 9.84375C17.4922 9.98438 17.4062 10.1055 17.2969 10.207C17.2891 10.2461 17.2969 10.2812 17.3203 10.3125C17.3516 10.3438 17.375 10.3789 17.3906 10.418C17.3047 10.4883 17.2422 10.5625 17.2031 10.6406C17.1719 10.7188 17.1484 10.8008 17.1328 10.8867C17.125 10.9727 17.1172 11.0547 17.1094 11.1328C17.1094 11.2109 17.0938 11.2852 17.0625 11.3555C16.9922 11.3867 16.9297 11.4258 16.875 11.4727C16.8203 11.5195 16.7656 11.5664 16.7109 11.6133C16.6641 11.6602 16.6094 11.7031 16.5469 11.7422C16.4844 11.7734 16.4062 11.7969 16.3125 11.8125C16.1484 11.7578 16.0156 11.707 15.9141 11.6602C15.8125 11.6055 15.6953 11.5469 15.5625 11.4844C15.4531 11.3438 15.3906 11.1953 15.375 11.0391C15.3672 10.8828 15.3867 10.7266 15.4336 10.5703C15.4805 10.4141 15.543 10.2656 15.6211 10.125C15.6992 9.98438 15.7734 9.85938 15.8438 9.75C15.8984 9.64062 15.9453 9.54297 15.9844 9.45703C15.8047 9.44922 15.6211 9.45312 15.4336 9.46875C15.2539 9.47656 15.0664 9.49219 14.8711 9.51562C14.8242 9.64844 14.7656 9.77734 14.6953 9.90234C14.6328 10.0195 14.5547 10.125 14.4609 10.2188C14.4531 10.2578 14.4648 10.293 14.4961 10.3242C14.5273 10.3555 14.5508 10.3906 14.5664 10.4297C14.4805 10.5 14.418 10.5742 14.3789 10.6523C14.3477 10.7305 14.3242 10.8125 14.3086 10.8984C14.3008 10.9766 14.293 11.0586 14.2852 11.1445C14.2773 11.2227 14.2578 11.293 14.2266 11.3555C14.1562 11.3867 14.0938 11.4258 14.0391 11.4727C13.9922 11.5195 13.9414 11.5664 13.8867 11.6133C13.832 11.6602 13.7734 11.7031 13.7109 11.7422C13.6484 11.7734 13.5703 11.7969 13.4766 11.8125C13.3125 11.7578 13.1797 11.707 13.0781 11.6602C12.9844 11.6055 12.8672 11.5469 12.7266 11.4844C12.6172 11.3516 12.5586 11.207 12.5508 11.0508C12.543 10.8867 12.5625 10.7266 12.6094 10.5703C12.6562 10.4141 12.7188 10.2656 12.7969 10.125C12.875 9.98438 12.9492 9.85938 13.0195 9.75C12.9258 9.75 12.8281 9.75391 12.7266 9.76172C12.6328 9.76172 12.5391 9.76562 12.4453 9.77344C12.3281 9.71094 12.2422 9.63281 12.1875 9.53906C12.1328 9.44531 12.0938 9.34766 12.0703 9.24609C12.0547 9.13672 12.0469 9.02734 12.0469 8.91797C12.0547 8.80859 12.0586 8.69922 12.0586 8.58984C12.0898 8.50391 12.1406 8.4375 12.2109 8.39062C12.2891 8.34375 12.3711 8.30078 12.457 8.26172C12.6914 8.25391 12.9023 8.24609 13.0898 8.23828C13.2773 8.22266 13.4609 8.20703 13.6406 8.19141C13.6484 8.17578 13.6523 8.15625 13.6523 8.13281C13.6602 8.10938 13.668 8.08984 13.6758 8.07422C13.668 7.96484 13.6914 7.82422 13.7461 7.65234C13.8086 7.47266 13.8789 7.28125 13.957 7.07812C13.8242 7.10156 13.7109 7.12109 13.6172 7.13672C13.5234 7.15234 13.4453 7.16797 13.3828 7.18359C13.1953 7.17578 13.0547 7.14844 12.9609 7.10156C12.875 7.05469 12.8086 7 12.7617 6.9375C12.7148 6.86719 12.6836 6.79297 12.668 6.71484C12.6523 6.62891 12.6289 6.53906 12.5977 6.44531C12.6602 6.38281 12.6992 6.29688 12.7148 6.1875C12.7383 6.07812 12.7148 5.99609 12.6445 5.94141C12.7227 5.92578 12.793 5.88281 12.8555 5.8125C12.918 5.73438 12.9414 5.67578 12.9258 5.63672C13.168 5.59766 13.418 5.57812 13.6758 5.57812C13.9336 5.57031 14.1797 5.55469 14.4141 5.53125C14.5 5.375 14.5742 5.17188 14.6367 4.92188C14.707 4.66406 14.7812 4.41016 14.8594 4.16016C14.9453 3.90234 15.0469 3.67578 15.1641 3.48047C15.2891 3.28516 15.4453 3.16797 15.6328 3.12891C15.8672 3.34766 16.043 3.58203 16.1602 3.83203C16.2852 4.07422 16.3867 4.36328 16.4648 4.69922C16.4414 4.77734 16.4062 4.875 16.3594 4.99219C16.3125 5.10938 16.2578 5.24609 16.1953 5.40234C16.3828 5.39453 16.5703 5.39062 16.7578 5.39062C16.9453 5.39062 17.1289 5.38672 17.3086 5.37891C17.3789 5.20703 17.4453 5 17.5078 4.75781C17.5703 4.51562 17.6406 4.28125 17.7188 4.05469C17.8047 3.82031 17.9062 3.61719 18.0234 3.44531C18.1406 3.27344 18.2891 3.16797 18.4688 3.12891C18.6953 3.33984 18.8711 3.57031 18.9961 3.82031C19.1211 4.07031 19.2188 4.36328 19.2891 4.69922C19.2656 4.77734 19.2266 4.88281 19.1719 5.01562C19.125 5.14062 19.0703 5.28516 19.0078 5.44922C19.1328 5.45703 19.2539 5.47266 19.3711 5.49609C19.4883 5.51172 19.5938 5.53906 19.6875 5.57812C19.7812 5.60938 19.8555 5.65625 19.9102 5.71875C19.9648 5.77344 19.9961 5.84766 20.0039 5.94141C20.1445 5.95703 20.2383 5.98438 20.2852 6.02344C20.3398 6.0625 20.3672 6.10938 20.3672 6.16406C20.375 6.21875 20.3633 6.28125 20.332 6.35156C20.3008 6.41406 20.2734 6.47656 20.25 6.53906C20.0312 6.63281 19.7656 6.70703 19.4531 6.76172C19.1484 6.80859 18.8203 6.84375 18.4688 6.86719C18.3828 7.11719 18.3086 7.34375 18.2461 7.54688C18.1836 7.74219 18.1484 7.89062 18.1406 7.99219H18.6562C18.6484 8.0625 18.6758 8.11328 18.7383 8.14453C18.8008 8.17578 18.8672 8.20312 18.9375 8.22656C19.0078 8.24219 19.0703 8.26562 19.125 8.29688C19.1797 8.32031 19.1953 8.36719 19.1719 8.4375ZM15.293 8.0625C15.4492 8.04688 15.6328 8.03516 15.8438 8.02734C16.0547 8.01953 16.2734 8.01172 16.5 8.00391C16.5156 7.87891 16.5547 7.71875 16.6172 7.52344C16.6875 7.32812 16.7656 7.125 16.8516 6.91406C16.6172 6.91406 16.3945 6.91406 16.1836 6.91406C15.9805 6.91406 15.793 6.91797 15.6211 6.92578C15.5352 7.16797 15.4609 7.38672 15.3984 7.58203C15.3438 7.76953 15.3125 7.91016 15.3047 8.00391L15.293 8.0625Z"/>
<path d="M28.6289 6.49219C28.6758 6.78906 28.6875 7.08594 28.6641 7.38281C28.6484 7.67969 28.6055 7.99609 28.5352 8.33203C28.4727 8.45703 28.3672 8.60156 28.2188 8.76562C28.0703 8.92188 27.9102 9.07422 27.7383 9.22266C27.5664 9.37109 27.3984 9.5 27.2344 9.60938C27.0703 9.71094 26.9492 9.76562 26.8711 9.77344C26.7305 9.79688 26.5938 9.80078 26.4609 9.78516C26.3281 9.76953 26.2031 9.74219 26.0859 9.70312C26.0625 9.71875 26.0352 9.73828 26.0039 9.76172C25.9805 9.77734 25.957 9.79688 25.9336 9.82031C25.8555 9.83594 25.7539 9.85156 25.6289 9.86719C25.5039 9.875 25.3984 9.90234 25.3125 9.94922C25.0391 9.98828 24.7578 10.0078 24.4688 10.0078C24.1875 10 23.9219 9.98047 23.6719 9.94922C23.6094 9.91016 23.5508 9.87891 23.4961 9.85547C23.4414 9.82422 23.3711 9.80469 23.2852 9.79688C23.1523 9.74219 23.0352 9.66406 22.9336 9.5625C22.8398 9.46094 22.7578 9.35156 22.6875 9.23438C22.625 9.11719 22.5742 8.99219 22.5352 8.85938C22.4961 8.72656 22.4727 8.60156 22.4648 8.48438C22.5039 8.28906 22.582 8.11719 22.6992 7.96875C22.8164 7.8125 22.9375 7.66016 23.0625 7.51172C23.1406 7.42578 23.2188 7.35938 23.2969 7.3125C23.375 7.26562 23.4375 7.20703 23.4844 7.13672C23.5859 7.10547 23.6719 7.0625 23.7422 7.00781C23.8203 6.95312 23.8945 6.90234 23.9648 6.85547C24.0352 6.80078 24.1055 6.75 24.1758 6.70312C24.2539 6.64844 24.3438 6.60156 24.4453 6.5625C24.5078 6.48438 24.6016 6.42188 24.7266 6.375C24.8516 6.32031 24.9414 6.24609 24.9961 6.15234C25.0352 6.18359 25.0742 6.19141 25.1133 6.17578C25.1523 6.15234 25.1914 6.13281 25.2305 6.11719C25.2852 6.10156 25.3281 6.11328 25.3594 6.15234C25.3906 6.18359 25.4141 6.17578 25.4297 6.12891C25.4609 6.16797 25.4844 6.19141 25.5 6.19922C25.5234 6.19922 25.5469 6.20312 25.5703 6.21094C25.6094 6.17188 25.6406 6.13672 25.6641 6.10547C25.6953 6.07422 25.7188 6.03906 25.7344 6L25.875 5.87109L26.0977 5.71875L26.2148 5.70703L26.4141 5.89453C26.4297 5.91016 26.4492 5.9375 26.4727 5.97656C26.4961 6.01562 26.5117 6.06641 26.5195 6.12891C26.5195 6.18359 26.5195 6.22266 26.5195 6.24609C26.5273 6.26172 26.5391 6.29297 26.5547 6.33984V6.48047C26.5469 6.51953 26.543 6.55078 26.543 6.57422C26.543 6.59766 26.543 6.64062 26.543 6.70312C26.543 6.71875 26.5391 6.73828 26.5312 6.76172C26.5312 6.77734 26.5312 6.79688 26.5312 6.82031C26.4297 7.125 26.3516 7.39844 26.2969 7.64062C26.25 7.875 26.2383 8.04688 26.2617 8.15625C26.2695 8.21094 26.2773 8.27344 26.2852 8.34375C26.3008 8.41406 26.3242 8.48047 26.3555 8.54297C26.3867 8.59766 26.4258 8.64844 26.4727 8.69531C26.5195 8.73438 26.582 8.75391 26.6602 8.75391C26.7227 8.74609 26.7891 8.72266 26.8594 8.68359C26.9219 8.64453 26.9922 8.59375 27.0703 8.53125C27.1484 8.46094 27.2305 8.35938 27.3164 8.22656L27.2461 8.03906C27.293 7.96094 27.3242 7.88281 27.3398 7.80469C27.3555 7.72656 27.3633 7.64844 27.3633 7.57031C27.3633 7.48438 27.3594 7.39453 27.3516 7.30078C27.3516 7.20703 27.3633 7.10547 27.3867 6.99609C27.3164 6.81641 27.2305 6.61328 27.1289 6.38672C27.0273 6.16016 26.9141 5.9375 26.7891 5.71875C26.6641 5.5 26.5273 5.30469 26.3789 5.13281C26.2383 4.95312 26.0859 4.82812 25.9219 4.75781C25.8828 4.74219 25.8516 4.74219 25.8281 4.75781C25.8125 4.76562 25.793 4.77734 25.7695 4.79297C25.7539 4.80078 25.7344 4.80859 25.7109 4.81641C25.6875 4.81641 25.6523 4.80469 25.6055 4.78125C25.1367 5.13281 24.6641 5.48047 24.1875 5.82422C23.7188 6.16016 23.2891 6.55078 22.8984 6.99609C22.5234 7.33203 22.1875 7.73438 21.8906 8.20312C21.5938 8.66406 21.3672 9.19141 21.2109 9.78516C21.2344 9.80078 21.2773 9.82422 21.3398 9.85547C21.4336 9.89453 21.5234 9.92188 21.6094 9.9375C21.6953 9.95312 21.7812 9.97656 21.8672 10.0078L22.2891 10.2422C22.3203 10.3047 22.3359 10.3438 22.3359 10.3594C22.5156 10.4219 22.6836 10.4648 22.8398 10.4883C22.9961 10.5117 23.1484 10.5547 23.2969 10.6172C23.6875 10.6328 24.0312 10.6484 24.3281 10.6641C24.625 10.6719 24.9219 10.6797 25.2188 10.6875C25.4844 10.6875 25.7227 10.6719 25.9336 10.6406C26.1523 10.6094 26.3633 10.5781 26.5664 10.5469C26.582 10.4922 26.5859 10.457 26.5781 10.4414C26.5781 10.418 26.5938 10.3867 26.625 10.3477C26.6953 10.3945 26.7656 10.4648 26.8359 10.5586C26.9141 10.6523 26.9883 10.75 27.0586 10.8516C27.1289 10.9531 27.1992 11.0508 27.2695 11.1445C27.3398 11.2383 27.4102 11.3086 27.4805 11.3555C27.4492 11.4102 27.4375 11.457 27.4453 11.4961C27.4531 11.5352 27.4453 11.582 27.4219 11.6367C27.2344 11.793 27.0156 11.8984 26.7656 11.9531C26.5234 12.0078 26.2617 12.0352 25.9805 12.0352C25.6992 12.043 25.4062 12.0352 25.1016 12.0117C24.7969 11.9961 24.5 12 24.2109 12.0234C24.0547 11.9844 23.9297 11.9609 23.8359 11.9531C23.7422 11.9453 23.6289 11.9297 23.4961 11.9062C23.2539 11.8984 23.0781 11.875 22.9688 11.8359C22.8984 11.8203 22.8281 11.8125 22.7578 11.8125C22.6875 11.8125 22.6211 11.8047 22.5586 11.7891C22.3633 11.7344 22.1914 11.6562 22.043 11.5547C21.8789 11.5 21.7109 11.4219 21.5391 11.3203C21.3672 11.2188 21.1992 11.1094 21.0352 10.9922C20.8789 10.8672 20.7305 10.7383 20.5898 10.6055C20.457 10.4648 20.3438 10.3359 20.25 10.2188C20.25 10.0938 20.2383 9.98828 20.2148 9.90234C20.1992 9.80859 20.1797 9.72266 20.1562 9.64453C20.1406 9.55859 20.1289 9.47266 20.1211 9.38672C20.1133 9.30078 20.125 9.19922 20.1562 9.08203C20.1328 9.01172 20.1094 8.94531 20.0859 8.88281C20.0625 8.8125 20.0391 8.74609 20.0156 8.68359C20.0312 8.34766 20.1016 8.04688 20.2266 7.78125C20.3516 7.51562 20.5 7.27344 20.6719 7.05469C20.8516 6.82812 21.0469 6.62109 21.2578 6.43359C21.4688 6.24609 21.6719 6.0625 21.8672 5.88281C21.9062 5.92188 21.9336 5.92969 21.9492 5.90625C21.9727 5.875 22.0234 5.86719 22.1016 5.88281C22.1016 5.83594 22.1211 5.78125 22.1602 5.71875C22.1992 5.65625 22.2461 5.59766 22.3008 5.54297C22.3633 5.48047 22.4297 5.42969 22.5 5.39062C22.5703 5.35156 22.6367 5.33984 22.6992 5.35547C22.7773 5.20703 22.8945 5.08203 23.0508 4.98047C23.2148 4.87891 23.3789 4.77734 23.543 4.67578C23.707 4.56641 23.8555 4.45312 23.9883 4.33594C24.1211 4.21094 24.2031 4.05469 24.2344 3.86719H24.457C24.3633 3.72656 24.3203 3.58594 24.3281 3.44531C24.3359 3.30469 24.3828 3.1875 24.4688 3.09375C24.5625 3 24.6875 2.94141 24.8438 2.91797C25 2.89453 25.1797 2.92969 25.3828 3.02344C25.4297 3.03125 25.4648 3.03125 25.4883 3.02344C25.5195 3.00781 25.5469 2.99219 25.5703 2.97656C25.5938 2.96094 25.6133 2.94531 25.6289 2.92969C25.6523 2.91406 25.6797 2.90234 25.7109 2.89453C26.0703 3.04297 26.3906 3.22656 26.6719 3.44531C26.9531 3.65625 27.2031 3.89844 27.4219 4.17188C27.4141 4.1875 27.3984 4.20312 27.375 4.21875C27.3594 4.22656 27.3438 4.23828 27.3281 4.25391C27.3125 4.26172 27.3008 4.27344 27.293 4.28906C27.293 4.30469 27.3086 4.32422 27.3398 4.34766C27.5977 4.66016 27.832 4.99609 28.043 5.35547C28.2539 5.71484 28.4492 6.09375 28.6289 6.49219ZM24.2227 8.60156C24.3711 8.61719 24.5195 8.62109 24.668 8.61328C24.8242 8.59766 24.9805 8.58203 25.1367 8.56641C25.0352 8.37891 24.9961 8.16406 25.0195 7.92188C25.0273 7.89062 25.0312 7.86328 25.0312 7.83984C25.0391 7.81641 25.043 7.79297 25.043 7.76953C25.0508 7.73828 25.0586 7.70703 25.0664 7.67578C25.0742 7.63672 25.082 7.59375 25.0898 7.54688C25.0195 7.58594 24.9492 7.625 24.8789 7.66406C24.8164 7.70312 24.7656 7.75 24.7266 7.80469C24.5859 7.86719 24.4766 7.94141 24.3984 8.02734C24.3203 8.11328 24.2383 8.19922 24.1523 8.28516C24.1602 8.32422 24.1562 8.35547 24.1406 8.37891C24.1328 8.39453 24.1211 8.41406 24.1055 8.4375C24.1211 8.47656 24.1367 8.50781 24.1523 8.53125C24.1758 8.55469 24.1992 8.57812 24.2227 8.60156Z"/>
</svg>
