<svg width="176" height="36" viewBox="0 0 176 36" fill="none" xmlns="http://www.w3.org/2000/svg">
<g clip-path="url(#clip0_45_6)" fill="rgba(255, 255, 255, .4)">
<path d="M6.43941 14.2493C7.25191 14.2884 7.91988 14.0462 8.44331 13.5188C8.65816 13.304 8.84566 13.0188 9.00191 12.6595C9.15425 12.304 9.3105 11.7571 9.46285 11.0266C9.61519 10.2962 9.81441 9.10477 10.0566 7.44461C10.2285 6.22196 10.4199 5.22977 10.6347 4.46414C10.8535 3.69852 11.1621 2.92118 11.5605 2.13993C10.7246 2.10086 9.98628 2.40164 9.34956 3.03446C9.08785 3.30008 8.85347 3.65946 8.65425 4.11258C8.45503 4.56961 8.26753 5.17899 8.09566 5.94461C7.92378 6.70633 7.72847 7.85086 7.52144 9.37039C7.13863 11.7063 6.77925 13.3313 6.43941 14.2493ZM6.27144 14.7298C5.99019 15.3001 5.6855 15.7532 5.35738 16.0774C4.97457 16.4602 4.54878 16.7141 4.07613 16.8431C3.60347 16.9759 3.13863 16.9798 2.67769 16.8509C2.21285 16.722 1.78316 16.4641 1.39253 16.0696C0.955033 15.6321 0.658158 15.1165 0.501908 14.5306C0.349564 13.9446 0.345658 13.3509 0.490189 12.7571C0.642533 12.1634 0.931595 11.6477 1.373 11.2102C1.73238 10.847 2.14644 10.6595 2.61128 10.6399C3.07613 10.6204 3.45894 10.7571 3.75191 11.054C3.92378 11.222 4.01753 11.4095 4.03316 11.6087C4.04878 11.8079 3.98238 11.9837 3.83003 12.136C3.71285 12.2532 3.58394 12.3157 3.45113 12.3313C3.3105 12.3431 3.19722 12.304 3.10347 12.2141C3.00581 12.1126 2.97066 11.9602 2.998 11.7532C3.03706 11.4876 3.02534 11.3274 2.96675 11.2688C2.81441 11.1165 2.60738 11.0735 2.34566 11.1399C2.08394 11.2063 1.84175 11.3509 1.6191 11.5735C1.2441 11.9485 0.994095 12.3899 0.865189 12.8977C0.740189 13.4055 0.740189 13.9134 0.876908 14.4212C1.00972 14.929 1.27144 15.3782 1.65816 15.7649C1.94722 16.0501 2.26753 16.261 2.62691 16.3899C2.98628 16.5149 3.33394 16.5462 3.66988 16.4759C4.00581 16.4095 4.29488 16.2532 4.52925 16.0188C4.94331 15.6048 5.23238 15.1126 5.39644 14.5462C5.5605 13.972 5.69722 12.9954 5.8066 11.6126C5.92769 10.3157 6.10738 8.89383 6.34956 7.35477C6.53316 6.26883 6.76753 5.37821 7.0566 4.69852C7.34566 4.01883 7.748 3.42117 8.25972 2.90946C9.25972 1.90555 10.4433 1.54227 11.8066 1.81961C12.0097 1.48367 12.2168 1.21414 12.4277 1.00321C12.8222 0.608675 13.2793 0.331332 13.8027 0.175082C14.33 0.0188315 14.8496 -0.00851222 15.3613 0.100863C15.8769 0.210238 16.3183 0.448519 16.6855 0.815707C17.3183 1.44461 17.6074 2.24539 17.5644 3.21414C17.5175 4.18289 17.1503 5.01493 16.4628 5.70243C16.1113 6.05008 15.7246 6.24539 15.2949 6.28836C14.8652 6.33133 14.5175 6.21805 14.248 5.94852C14.0566 5.75711 13.9589 5.5618 13.9511 5.35868C13.9472 5.15555 14.0332 4.96414 14.2089 4.78836C14.4785 4.51883 14.7363 4.50711 14.9863 4.75711C15.0957 4.87039 15.1269 5.00321 15.0722 5.15946C15.0136 5.40164 15.0332 5.57352 15.1308 5.67118C15.2519 5.79227 15.416 5.82743 15.6347 5.79227C15.8496 5.75321 16.0722 5.61649 16.3027 5.38602C16.6503 5.03836 16.8964 4.60086 17.0449 4.06571C17.1933 3.53055 17.2168 2.99539 17.1152 2.46414C17.0136 1.92899 16.7949 1.49149 16.4589 1.15555C16.0097 0.706331 15.4589 0.483675 14.8183 0.491488C14.1738 0.495394 13.6191 0.733675 13.1543 1.19852C12.7558 1.59696 12.4628 2.05008 12.2832 2.55008C12.1035 3.05008 11.9511 3.85086 11.8261 4.94461C11.7089 5.83914 11.5605 6.83914 11.3769 7.94461C11.1894 9.05399 11.0332 9.92117 10.8925 10.5423C10.5878 11.9524 10.0839 13.0032 9.38863 13.6985C9.00191 14.0852 8.56831 14.3587 8.08394 14.5188C7.60347 14.679 6.998 14.7532 6.27144 14.7298Z"/>
<path d="M7.51753 26.6282C7.72847 28.1517 7.92378 29.2923 8.09566 30.0579C8.26753 30.8236 8.45503 31.429 8.65425 31.8861C8.85738 32.3431 9.08785 32.7025 9.34956 32.9642C9.98628 33.597 10.7246 33.8978 11.5605 33.8587C11.1621 33.0775 10.8535 32.304 10.6386 31.5384C10.4199 30.7689 10.2285 29.7767 10.0566 28.5579C9.81441 26.8978 9.61519 25.7025 9.46285 24.972C9.3105 24.2415 9.15425 23.6986 9.00191 23.3392C8.84566 22.9837 8.66206 22.6946 8.44331 22.4798C7.91988 21.9525 7.25191 21.7142 6.43941 21.7532C6.77925 22.6712 7.13863 24.2962 7.51753 26.6282ZM8.08394 21.4798C8.56441 21.64 9.00191 21.9173 9.38863 22.304C10.0839 22.9954 10.5839 24.0501 10.8925 25.4603C11.0332 26.0814 11.1894 26.9486 11.3769 28.054C11.5605 29.1634 11.7089 30.1634 11.8261 31.054C11.9511 32.1517 12.1035 32.9486 12.2832 33.4486C12.4628 33.9525 12.7558 34.4017 13.1543 34.804C13.6191 35.2689 14.1738 35.5032 14.8183 35.5111C15.4589 35.515 16.0058 35.2962 16.4589 34.8431C16.7949 34.5071 17.0136 34.0736 17.1152 33.5384C17.2168 33.0032 17.1933 32.4681 17.0449 31.9329C16.8964 31.3978 16.6503 30.9603 16.3027 30.6126C16.0722 30.3821 15.8496 30.2493 15.6347 30.2103C15.4199 30.1712 15.2519 30.2103 15.1308 30.3275C15.0332 30.4251 15.0136 30.597 15.0722 30.8392C15.1269 30.9993 15.0957 31.1321 14.9863 31.2415C14.7363 31.4915 14.4746 31.4798 14.2089 31.2142C14.0293 31.0345 13.9472 30.847 13.9511 30.6439C13.9589 30.4407 14.0566 30.2415 14.248 30.054C14.5175 29.7845 14.8652 29.6712 15.2949 29.7103C15.7246 29.7571 16.1113 29.9486 16.4589 30.2962C17.1503 30.9876 17.5136 31.8157 17.5605 32.7845C17.6074 33.7571 17.3183 34.5579 16.6855 35.1868C16.3183 35.554 15.8769 35.7923 15.3613 35.8978C14.8496 36.0071 14.33 35.9837 13.8066 35.8275C13.2793 35.6673 12.8222 35.3939 12.4277 34.9993C12.2168 34.7884 12.0097 34.5189 11.8066 34.1829C10.4433 34.4564 9.25972 34.0931 8.25972 33.0892C7.748 32.5814 7.34566 31.9837 7.0566 31.3001C6.76753 30.6204 6.53316 29.7337 6.34956 28.6478C6.10738 27.1048 5.92378 25.6829 5.8105 24.3861C5.69722 23.0032 5.5605 22.0267 5.39644 21.4564C5.23238 20.8861 4.94331 20.3939 4.52925 19.9798C4.29488 19.7454 4.00972 19.5931 3.66988 19.5228C3.33394 19.4564 2.98628 19.4837 2.62691 19.6126C2.27144 19.7376 1.94722 19.9486 1.65816 20.2376C1.27144 20.6243 1.00972 21.0696 0.876908 21.5814C0.740189 22.0892 0.740189 22.597 0.865189 23.1048C0.994095 23.6126 1.2441 24.054 1.6191 24.4251C1.84175 24.6517 2.08394 24.7962 2.34566 24.8587C2.60738 24.9251 2.81441 24.8821 2.96675 24.7298C3.02534 24.6712 3.03706 24.5111 2.998 24.2493C2.97066 24.0384 3.00581 23.8861 3.10347 23.7884C3.19722 23.6946 3.3105 23.6556 3.45113 23.6712C3.58394 23.6829 3.71285 23.7493 3.83003 23.8665C3.98238 24.015 4.04878 24.1907 4.03316 24.3939C4.01753 24.5931 3.92378 24.7767 3.75581 24.9486C3.45894 25.2415 3.08003 25.3782 2.61128 25.3626C2.14644 25.3431 1.73238 25.1517 1.373 24.7884C0.935502 24.3509 0.638626 23.8353 0.490189 23.2415C0.345658 22.6478 0.349564 22.0579 0.501908 21.472C0.658158 20.8821 0.955033 20.3704 1.39253 19.9329C1.78706 19.5384 2.21285 19.2806 2.67769 19.1517C3.13863 19.0228 3.60738 19.0228 4.07613 19.1556C4.54878 19.2845 4.97457 19.5423 5.35738 19.9212C5.6855 20.2532 5.99019 20.6986 6.27144 21.2689C6.998 21.2493 7.60347 21.3196 8.08394 21.4798Z"/>
<path d="M168.479 9.37039C168.272 7.85086 168.076 6.70633 167.904 5.94461C167.732 5.17899 167.545 4.56961 167.346 4.11258C167.147 3.65946 166.912 3.30008 166.65 3.03446C166.014 2.40164 165.275 2.10086 164.439 2.13993C164.838 2.92118 165.147 3.69852 165.365 4.46414C165.58 5.22977 165.772 6.22196 165.943 7.44461C166.186 9.10477 166.385 10.2962 166.537 11.0266C166.689 11.7571 166.846 12.304 166.998 12.6595C167.154 13.0188 167.342 13.304 167.557 13.5188C168.08 14.0462 168.748 14.2884 169.561 14.2493C169.221 13.3313 168.861 11.7063 168.479 9.37039ZM167.916 14.5188C167.432 14.3587 166.998 14.0852 166.611 13.6985C165.916 13.0032 165.412 11.9524 165.107 10.5423C164.967 9.92117 164.811 9.05399 164.623 7.94461C164.439 6.83914 164.291 5.83914 164.174 4.94461C164.049 3.85086 163.897 3.05008 163.717 2.55008C163.537 2.05008 163.244 1.59696 162.846 1.19852C162.381 0.733675 161.826 0.495394 161.182 0.491488C160.541 0.483675 159.99 0.706331 159.541 1.15555C159.205 1.49149 158.986 1.92899 158.885 2.46414C158.783 2.99539 158.807 3.53055 158.955 4.06571C159.104 4.60086 159.35 5.03836 159.697 5.38602C159.928 5.61649 160.15 5.75321 160.365 5.79227C160.584 5.82743 160.748 5.79227 160.869 5.67118C160.967 5.57352 160.986 5.40164 160.928 5.15946C160.873 5.00321 160.904 4.87039 161.014 4.75711C161.264 4.50711 161.522 4.51883 161.791 4.78836C161.967 4.96414 162.053 5.15555 162.049 5.35868C162.041 5.5618 161.943 5.75711 161.752 5.94852C161.482 6.21805 161.135 6.33133 160.705 6.28836C160.275 6.24539 159.889 6.05008 159.537 5.70243C158.85 5.01493 158.482 4.18289 158.436 3.21414C158.393 2.24539 158.682 1.44461 159.314 0.815707C159.682 0.448519 160.123 0.210238 160.639 0.100863C161.15 -0.00851222 161.67 0.0188315 162.197 0.175082C162.721 0.331332 163.178 0.608675 163.572 1.00321C163.783 1.21414 163.99 1.48367 164.193 1.81961C165.557 1.54227 166.74 1.90555 167.74 2.90946C168.252 3.42117 168.654 4.01883 168.943 4.69852C169.232 5.37821 169.467 6.26883 169.65 7.35477C169.893 8.89383 170.072 10.3157 170.193 11.6126C170.303 12.9954 170.439 13.972 170.604 14.5462C170.768 15.1126 171.057 15.6048 171.471 16.0188C171.705 16.2532 171.994 16.4095 172.33 16.4759C172.666 16.5462 173.014 16.5149 173.373 16.3899C173.732 16.261 174.053 16.0501 174.342 15.7649C174.729 15.3782 174.99 14.929 175.123 14.4212C175.26 13.9134 175.26 13.4055 175.135 12.8977C175.006 12.3899 174.756 11.9485 174.381 11.5735C174.158 11.3509 173.916 11.2063 173.654 11.1399C173.393 11.0735 173.186 11.1165 173.033 11.2688C172.975 11.3274 172.963 11.4876 173.002 11.7532C173.029 11.9602 172.994 12.1126 172.897 12.2141C172.803 12.304 172.689 12.3431 172.549 12.3313C172.416 12.3157 172.287 12.2532 172.17 12.136C172.018 11.9837 171.951 11.8079 171.967 11.6087C171.982 11.4095 172.076 11.222 172.248 11.054C172.541 10.7571 172.924 10.6204 173.389 10.6399C173.854 10.6595 174.268 10.847 174.627 11.2102C175.068 11.6477 175.357 12.1634 175.51 12.7571C175.654 13.3509 175.65 13.9446 175.498 14.5306C175.342 15.1165 175.045 15.6321 174.607 16.0696C174.217 16.4641 173.787 16.722 173.322 16.8509C172.861 16.9798 172.397 16.9759 171.924 16.8431C171.451 16.7141 171.025 16.4602 170.643 16.0774C170.314 15.7532 170.01 15.3001 169.729 14.7298C169.002 14.7532 168.397 14.679 167.916 14.5188Z"/>
<path d="M169.561 21.7532C168.748 21.7142 168.08 21.9525 167.557 22.4798C167.338 22.6946 167.154 22.9837 166.998 23.3392C166.846 23.6986 166.689 24.2415 166.537 24.972C166.385 25.7025 166.186 26.8978 165.943 28.5579C165.772 29.7767 165.58 30.7689 165.361 31.5384C165.147 32.304 164.838 33.0775 164.439 33.8587C165.275 33.8978 166.014 33.597 166.65 32.9642C166.912 32.7025 167.143 32.3431 167.346 31.8861C167.545 31.429 167.732 30.8236 167.904 30.0579C168.076 29.2923 168.272 28.1517 168.482 26.6282C168.861 24.2962 169.221 22.6712 169.561 21.7532ZM169.729 21.2689C170.01 20.6986 170.314 20.2532 170.643 19.9212C171.025 19.5423 171.451 19.2845 171.924 19.1556C172.393 19.0228 172.861 19.0228 173.322 19.1517C173.787 19.2806 174.213 19.5384 174.607 19.9329C175.045 20.3704 175.342 20.8821 175.498 21.472C175.65 22.0579 175.654 22.6478 175.51 23.2415C175.361 23.8353 175.064 24.3509 174.627 24.7884C174.268 25.1517 173.854 25.3431 173.389 25.3626C172.92 25.3782 172.541 25.2415 172.244 24.9486C172.076 24.7767 171.982 24.5931 171.967 24.3939C171.951 24.1907 172.018 24.015 172.17 23.8665C172.287 23.7493 172.416 23.6829 172.549 23.6712C172.689 23.6556 172.803 23.6946 172.897 23.7884C172.994 23.8861 173.029 24.0384 173.002 24.2493C172.963 24.5111 172.975 24.6712 173.033 24.7298C173.186 24.8821 173.393 24.9251 173.654 24.8587C173.916 24.7962 174.158 24.6517 174.381 24.4251C174.756 24.054 175.006 23.6126 175.135 23.1048C175.26 22.597 175.26 22.0892 175.123 21.5814C174.99 21.0696 174.729 20.6243 174.342 20.2376C174.053 19.9486 173.729 19.7376 173.373 19.6126C173.014 19.4837 172.666 19.4564 172.33 19.5228C171.99 19.5931 171.705 19.7454 171.471 19.9798C171.057 20.3939 170.768 20.8861 170.604 21.4564C170.439 22.0267 170.303 23.0032 170.189 24.3861C170.076 25.6829 169.893 27.1048 169.65 28.6478C169.467 29.7337 169.232 30.6204 168.943 31.3001C168.654 31.9837 168.252 32.5814 167.74 33.0892C166.74 34.0931 165.557 34.4564 164.193 34.1829C163.99 34.5189 163.783 34.7884 163.572 34.9993C163.178 35.3939 162.721 35.6673 162.193 35.8275C161.67 35.9837 161.15 36.0071 160.639 35.8978C160.123 35.7923 159.682 35.554 159.314 35.1868C158.682 34.5579 158.393 33.7571 158.439 32.7845C158.486 31.8157 158.85 30.9876 159.541 30.2962C159.889 29.9486 160.275 29.7571 160.705 29.7103C161.135 29.6712 161.482 29.7845 161.752 30.054C161.943 30.2415 162.041 30.4407 162.049 30.6439C162.053 30.847 161.971 31.0345 161.791 31.2142C161.525 31.4798 161.264 31.4915 161.014 31.2415C160.904 31.1321 160.873 30.9993 160.928 30.8392C160.986 30.597 160.967 30.4251 160.869 30.3275C160.748 30.2103 160.58 30.1712 160.365 30.2103C160.15 30.2493 159.928 30.3821 159.697 30.6126C159.35 30.9603 159.104 31.3978 158.955 31.9329C158.807 32.4681 158.783 33.0032 158.885 33.5384C158.986 34.0736 159.205 34.5071 159.541 34.8431C159.994 35.2962 160.541 35.515 161.182 35.5111C161.826 35.5032 162.381 35.2689 162.846 34.804C163.244 34.4017 163.537 33.9525 163.717 33.4486C163.897 32.9486 164.049 32.1517 164.174 31.054C164.291 30.1634 164.439 29.1634 164.623 28.054C164.811 26.9486 164.967 26.0814 165.107 25.4603C165.416 24.0501 165.916 22.9954 166.611 22.304C166.998 21.9173 167.436 21.64 167.916 21.4798C168.397 21.3196 169.002 21.2493 169.729 21.2689Z"/>
<path d="M20.7207 1.11261C20.584 1.11261 20.4707 1.00324 20.4707 0.86261C20.4707 0.725892 20.584 0.61261 20.7207 0.61261H155.557C155.693 0.61261 155.807 0.725892 155.807 0.86261C155.807 1.00324 155.693 1.11261 155.557 1.11261H20.7207Z"/>
<path d="M20.7207 34.7806C20.5801 34.7806 20.4707 34.6673 20.4707 34.5306C20.4707 34.39 20.5801 34.2806 20.7207 34.2806H155.553C155.693 34.2806 155.807 34.39 155.807 34.5306C155.807 34.6673 155.693 34.7806 155.553 34.7806H20.7207Z"/>
</g>
<defs>
<clipPath id="clip0_45_6">
<rect width="176" height="36"/>
</clipPath>
</defs>
</svg>
